<mxfile host="app.diagrams.net" agent="Mozilla/5.0 (Windows NT 10.0; Win64; x64) AppleWebKit/537.36 (KHTML, like Gecko) Chrome/137.0.0.0 Safari/537.36" version="27.1.6">
  <diagram name="第 1 页" id="5Qlbk_8EjnfD3I49xbXd">
    <mxGraphModel dx="2977" dy="1626" grid="1" gridSize="10" guides="1" tooltips="1" connect="1" arrows="1" fold="1" page="1" pageScale="1" pageWidth="1169" pageHeight="827" math="0" shadow="0">
      <root>
        <mxCell id="0" />
        <mxCell id="1" parent="0" />
        <mxCell id="D6cP3bkCtLaL_WxXHLN0-1" value="1. INput" style="swimlane;startSize=20;horizontal=0;childLayout=treeLayout;horizontalTree=1;sortEdges=1;resizable=0;containerType=tree;fontSize=12;fontFamily=Comic Sans MS;sketch=1;curveFitting=1;jiggle=2;" parent="1" vertex="1">
          <mxGeometry x="330" y="440" width="930" height="530" as="geometry" />
        </mxCell>
        <mxCell id="D6cP3bkCtLaL_WxXHLN0-2" value="Input" style="whiteSpace=wrap;html=1;shape=ellipse;perimeter=ellipsePerimeter;newEdgeStyle={&quot;edgeStyle&quot;:&quot;entityRelationEdgeStyle&quot;,&quot;startArrow&quot;:&quot;none&quot;,&quot;endArrow&quot;:&quot;none&quot;,&quot;segment&quot;:10,&quot;curved&quot;:1,&quot;sourcePerimeterSpacing&quot;:0,&quot;targetPerimeterSpacing&quot;:0};treeFolding=1;treeMoving=1;fontFamily=Comic Sans MS;sketch=1;curveFitting=1;jiggle=2;fillColor=#f8cecc;strokeColor=#b85450;" parent="D6cP3bkCtLaL_WxXHLN0-1" vertex="1">
          <mxGeometry x="40" y="391.875" width="70" height="30" as="geometry" />
        </mxCell>
        <mxCell id="q-akzQOQ44o_kOeG1WCX-3" value="" style="edgeStyle=entityRelationEdgeStyle;rounded=0;orthogonalLoop=1;jettySize=auto;html=1;startArrow=none;endArrow=none;segment=10;curved=1;sourcePerimeterSpacing=0;targetPerimeterSpacing=0;fontFamily=Comic Sans MS;" parent="D6cP3bkCtLaL_WxXHLN0-1" source="D6cP3bkCtLaL_WxXHLN0-2" target="q-akzQOQ44o_kOeG1WCX-4" edge="1">
          <mxGeometry relative="1" as="geometry" />
        </mxCell>
        <mxCell id="q-akzQOQ44o_kOeG1WCX-4" value="Content" style="whiteSpace=wrap;html=1;shape=ellipse;perimeter=ellipsePerimeter;newEdgeStyle={&quot;edgeStyle&quot;:&quot;entityRelationEdgeStyle&quot;,&quot;startArrow&quot;:&quot;none&quot;,&quot;endArrow&quot;:&quot;none&quot;,&quot;segment&quot;:10,&quot;curved&quot;:1,&quot;sourcePerimeterSpacing&quot;:0,&quot;targetPerimeterSpacing&quot;:0};treeFolding=1;treeMoving=1;fontFamily=Comic Sans MS;sketch=1;curveFitting=1;jiggle=2;fillColor=#fff2cc;strokeColor=#d6b656;" parent="D6cP3bkCtLaL_WxXHLN0-1" vertex="1">
          <mxGeometry x="160" y="303.75" width="80" height="30" as="geometry" />
        </mxCell>
        <mxCell id="q-akzQOQ44o_kOeG1WCX-7" value="" style="edgeStyle=entityRelationEdgeStyle;rounded=0;orthogonalLoop=1;jettySize=auto;html=1;startArrow=none;endArrow=none;segment=10;curved=1;sourcePerimeterSpacing=0;targetPerimeterSpacing=0;fontFamily=Comic Sans MS;" parent="D6cP3bkCtLaL_WxXHLN0-1" source="q-akzQOQ44o_kOeG1WCX-4" target="q-akzQOQ44o_kOeG1WCX-8" edge="1">
          <mxGeometry relative="1" as="geometry">
            <mxPoint x="475" y="-1394.625" as="sourcePoint" />
          </mxGeometry>
        </mxCell>
        <mxCell id="q-akzQOQ44o_kOeG1WCX-8" value="Domain Knowledge" style="whiteSpace=wrap;html=1;shape=ellipse;perimeter=ellipsePerimeter;newEdgeStyle={&quot;edgeStyle&quot;:&quot;entityRelationEdgeStyle&quot;,&quot;startArrow&quot;:&quot;none&quot;,&quot;endArrow&quot;:&quot;none&quot;,&quot;segment&quot;:10,&quot;curved&quot;:1,&quot;sourcePerimeterSpacing&quot;:0,&quot;targetPerimeterSpacing&quot;:0};treeFolding=1;treeMoving=1;fontFamily=Comic Sans MS;sketch=1;curveFitting=1;jiggle=2;fillColor=#dae8fc;strokeColor=#6c8ebf;" parent="D6cP3bkCtLaL_WxXHLN0-1" vertex="1">
          <mxGeometry x="290" y="197.5" width="140" height="30" as="geometry" />
        </mxCell>
        <mxCell id="q-akzQOQ44o_kOeG1WCX-9" value="&lt;div style=&quot;&quot;&gt;根据 IDS 划分 12 中常用的汉字空间结构&lt;/div&gt;" style="whiteSpace=wrap;html=1;shape=partialRectangle;top=0;left=0;bottom=1;right=0;points=[[0,1],[1,1]];fillColor=none;align=center;verticalAlign=bottom;routingCenterY=0.5;snapToPoint=1;recursiveResize=0;autosize=1;treeFolding=1;treeMoving=1;newEdgeStyle={&quot;edgeStyle&quot;:&quot;entityRelationEdgeStyle&quot;,&quot;startArrow&quot;:&quot;none&quot;,&quot;endArrow&quot;:&quot;none&quot;,&quot;segment&quot;:10,&quot;curved&quot;:1,&quot;sourcePerimeterSpacing&quot;:0,&quot;targetPerimeterSpacing&quot;:0};fontFamily=Comic Sans MS;" parent="D6cP3bkCtLaL_WxXHLN0-1" vertex="1">
          <mxGeometry x="480" y="55" width="260" height="30" as="geometry" />
        </mxCell>
        <mxCell id="q-akzQOQ44o_kOeG1WCX-10" value="" style="edgeStyle=entityRelationEdgeStyle;startArrow=none;endArrow=none;segment=10;curved=1;sourcePerimeterSpacing=0;targetPerimeterSpacing=0;rounded=0;fontFamily=Comic Sans MS;" parent="D6cP3bkCtLaL_WxXHLN0-1" source="q-akzQOQ44o_kOeG1WCX-8" target="q-akzQOQ44o_kOeG1WCX-9" edge="1">
          <mxGeometry width="80" height="20" as="geometry" />
        </mxCell>
        <mxCell id="q-akzQOQ44o_kOeG1WCX-13" value="" style="edgeStyle=entityRelationEdgeStyle;startArrow=none;endArrow=none;segment=10;curved=1;sourcePerimeterSpacing=0;targetPerimeterSpacing=0;rounded=0;fontFamily=Comic Sans MS;" parent="D6cP3bkCtLaL_WxXHLN0-1" source="q-akzQOQ44o_kOeG1WCX-9" target="q-akzQOQ44o_kOeG1WCX-14" edge="1">
          <mxGeometry width="80" height="20" as="geometry">
            <mxPoint x="615" y="-1394.625" as="sourcePoint" />
          </mxGeometry>
        </mxCell>
        <mxCell id="q-akzQOQ44o_kOeG1WCX-14" value="&lt;div style=&quot;&quot;&gt;IF-Font&lt;/div&gt;" style="whiteSpace=wrap;html=1;shape=partialRectangle;top=0;left=0;bottom=1;right=0;points=[[0,1],[1,1]];fillColor=none;align=center;verticalAlign=bottom;routingCenterY=0.5;snapToPoint=1;recursiveResize=0;autosize=1;treeFolding=1;treeMoving=1;newEdgeStyle={&quot;edgeStyle&quot;:&quot;entityRelationEdgeStyle&quot;,&quot;startArrow&quot;:&quot;none&quot;,&quot;endArrow&quot;:&quot;none&quot;,&quot;segment&quot;:10,&quot;curved&quot;:1,&quot;sourcePerimeterSpacing&quot;:0,&quot;targetPerimeterSpacing&quot;:0};fontFamily=Comic Sans MS;" parent="D6cP3bkCtLaL_WxXHLN0-1" vertex="1">
          <mxGeometry x="790" y="20" width="80" height="30" as="geometry" />
        </mxCell>
        <mxCell id="q-akzQOQ44o_kOeG1WCX-19" value="" style="edgeStyle=entityRelationEdgeStyle;startArrow=none;endArrow=none;segment=10;curved=1;sourcePerimeterSpacing=0;targetPerimeterSpacing=0;rounded=0;fontFamily=Comic Sans MS;" parent="D6cP3bkCtLaL_WxXHLN0-1" source="q-akzQOQ44o_kOeG1WCX-8" target="q-akzQOQ44o_kOeG1WCX-20" edge="1">
          <mxGeometry width="80" height="20" as="geometry">
            <mxPoint x="615" y="-1364.625" as="sourcePoint" />
          </mxGeometry>
        </mxCell>
        <mxCell id="q-akzQOQ44o_kOeG1WCX-20" value="&lt;div style=&quot;&quot;&gt;&lt;div&gt;stroke-level 部件分解/部首&lt;/div&gt;&lt;/div&gt;" style="whiteSpace=wrap;html=1;shape=partialRectangle;top=0;left=0;bottom=1;right=0;points=[[0,1],[1,1]];fillColor=none;align=center;verticalAlign=bottom;routingCenterY=0.5;snapToPoint=1;recursiveResize=0;autosize=1;treeFolding=1;treeMoving=1;newEdgeStyle={&quot;edgeStyle&quot;:&quot;entityRelationEdgeStyle&quot;,&quot;startArrow&quot;:&quot;none&quot;,&quot;endArrow&quot;:&quot;none&quot;,&quot;segment&quot;:10,&quot;curved&quot;:1,&quot;sourcePerimeterSpacing&quot;:0,&quot;targetPerimeterSpacing&quot;:0};fontFamily=Comic Sans MS;" parent="D6cP3bkCtLaL_WxXHLN0-1" vertex="1">
          <mxGeometry x="480" y="195" width="190" height="30" as="geometry" />
        </mxCell>
        <mxCell id="q-akzQOQ44o_kOeG1WCX-41" value="" style="edgeStyle=entityRelationEdgeStyle;startArrow=none;endArrow=none;segment=10;curved=1;sourcePerimeterSpacing=0;targetPerimeterSpacing=0;rounded=0;fontFamily=Comic Sans MS;" parent="D6cP3bkCtLaL_WxXHLN0-1" source="q-akzQOQ44o_kOeG1WCX-8" target="q-akzQOQ44o_kOeG1WCX-42" edge="1">
          <mxGeometry width="80" height="20" as="geometry">
            <mxPoint x="640" y="-1269.625" as="sourcePoint" />
          </mxGeometry>
        </mxCell>
        <mxCell id="q-akzQOQ44o_kOeG1WCX-42" value="&lt;div style=&quot;&quot;&gt;&lt;div&gt;&lt;span style=&quot;background-color: transparent; color: light-dark(rgb(0, 0, 0), rgb(255, 255, 255));&quot;&gt;比部首更高级的部件&lt;/span&gt;&lt;/div&gt;&lt;/div&gt;" style="whiteSpace=wrap;html=1;shape=partialRectangle;top=0;left=0;bottom=1;right=0;points=[[0,1],[1,1]];fillColor=none;align=center;verticalAlign=bottom;routingCenterY=0.5;snapToPoint=1;recursiveResize=0;autosize=1;treeFolding=1;treeMoving=1;newEdgeStyle={&quot;edgeStyle&quot;:&quot;entityRelationEdgeStyle&quot;,&quot;startArrow&quot;:&quot;none&quot;,&quot;endArrow&quot;:&quot;none&quot;,&quot;segment&quot;:10,&quot;curved&quot;:1,&quot;sourcePerimeterSpacing&quot;:0,&quot;targetPerimeterSpacing&quot;:0};fontFamily=Comic Sans MS;" parent="D6cP3bkCtLaL_WxXHLN0-1" vertex="1">
          <mxGeometry x="480" y="340" width="150" height="30" as="geometry" />
        </mxCell>
        <mxCell id="q-akzQOQ44o_kOeG1WCX-43" value="" style="edgeStyle=entityRelationEdgeStyle;startArrow=none;endArrow=none;segment=10;curved=1;sourcePerimeterSpacing=0;targetPerimeterSpacing=0;rounded=0;fontFamily=Comic Sans MS;" parent="D6cP3bkCtLaL_WxXHLN0-1" source="q-akzQOQ44o_kOeG1WCX-20" target="q-akzQOQ44o_kOeG1WCX-44" edge="1">
          <mxGeometry width="80" height="20" as="geometry">
            <mxPoint x="640" y="-1189.625" as="sourcePoint" />
          </mxGeometry>
        </mxCell>
        <mxCell id="q-akzQOQ44o_kOeG1WCX-44" value="&lt;div style=&quot;&quot;&gt;StokeGAN,&amp;nbsp;&lt;span style=&quot;background-color: transparent; color: light-dark(rgb(0, 0, 0), rgb(255, 255, 255));&quot;&gt;StrokeGAN+&lt;/span&gt;&lt;/div&gt;" style="whiteSpace=wrap;html=1;shape=partialRectangle;top=0;left=0;bottom=1;right=0;points=[[0,1],[1,1]];fillColor=none;align=center;verticalAlign=bottom;routingCenterY=0.5;snapToPoint=1;recursiveResize=0;autosize=1;treeFolding=1;treeMoving=1;newEdgeStyle={&quot;edgeStyle&quot;:&quot;entityRelationEdgeStyle&quot;,&quot;startArrow&quot;:&quot;none&quot;,&quot;endArrow&quot;:&quot;none&quot;,&quot;segment&quot;:10,&quot;curved&quot;:1,&quot;sourcePerimeterSpacing&quot;:0,&quot;targetPerimeterSpacing&quot;:0};fontFamily=Comic Sans MS;" parent="D6cP3bkCtLaL_WxXHLN0-1" vertex="1">
          <mxGeometry x="720" y="160" width="180" height="30" as="geometry" />
        </mxCell>
        <mxCell id="q-akzQOQ44o_kOeG1WCX-45" value="" style="edgeStyle=entityRelationEdgeStyle;startArrow=none;endArrow=none;segment=10;curved=1;sourcePerimeterSpacing=0;targetPerimeterSpacing=0;rounded=0;fontFamily=Comic Sans MS;" parent="D6cP3bkCtLaL_WxXHLN0-1" source="q-akzQOQ44o_kOeG1WCX-9" target="q-akzQOQ44o_kOeG1WCX-46" edge="1">
          <mxGeometry width="80" height="20" as="geometry">
            <mxPoint x="950" y="-1254.625" as="sourcePoint" />
          </mxGeometry>
        </mxCell>
        <mxCell id="q-akzQOQ44o_kOeG1WCX-46" value="&lt;div style=&quot;&quot;&gt;2308 VQ-Font&lt;/div&gt;" style="whiteSpace=wrap;html=1;shape=partialRectangle;top=0;left=0;bottom=1;right=0;points=[[0,1],[1,1]];fillColor=none;align=center;verticalAlign=bottom;routingCenterY=0.5;snapToPoint=1;recursiveResize=0;autosize=1;treeFolding=1;treeMoving=1;newEdgeStyle={&quot;edgeStyle&quot;:&quot;entityRelationEdgeStyle&quot;,&quot;startArrow&quot;:&quot;none&quot;,&quot;endArrow&quot;:&quot;none&quot;,&quot;segment&quot;:10,&quot;curved&quot;:1,&quot;sourcePerimeterSpacing&quot;:0,&quot;targetPerimeterSpacing&quot;:0};fontFamily=Comic Sans MS;" parent="D6cP3bkCtLaL_WxXHLN0-1" vertex="1">
          <mxGeometry x="790" y="90" width="120" height="30" as="geometry" />
        </mxCell>
        <mxCell id="q-akzQOQ44o_kOeG1WCX-49" value="" style="edgeStyle=entityRelationEdgeStyle;startArrow=none;endArrow=none;segment=10;curved=1;sourcePerimeterSpacing=0;targetPerimeterSpacing=0;rounded=0;fontFamily=Comic Sans MS;" parent="D6cP3bkCtLaL_WxXHLN0-1" source="q-akzQOQ44o_kOeG1WCX-20" target="q-akzQOQ44o_kOeG1WCX-50" edge="1">
          <mxGeometry width="80" height="20" as="geometry">
            <mxPoint x="930" y="-864.625" as="sourcePoint" />
          </mxGeometry>
        </mxCell>
        <mxCell id="q-akzQOQ44o_kOeG1WCX-50" value="&lt;div style=&quot;&quot;&gt;Diff-Font&lt;/div&gt;" style="whiteSpace=wrap;html=1;shape=partialRectangle;top=0;left=0;bottom=1;right=0;points=[[0,1],[1,1]];fillColor=none;align=center;verticalAlign=bottom;routingCenterY=0.5;snapToPoint=1;recursiveResize=0;autosize=1;treeFolding=1;treeMoving=1;newEdgeStyle={&quot;edgeStyle&quot;:&quot;entityRelationEdgeStyle&quot;,&quot;startArrow&quot;:&quot;none&quot;,&quot;endArrow&quot;:&quot;none&quot;,&quot;segment&quot;:10,&quot;curved&quot;:1,&quot;sourcePerimeterSpacing&quot;:0,&quot;targetPerimeterSpacing&quot;:0};fontFamily=Comic Sans MS;" parent="D6cP3bkCtLaL_WxXHLN0-1" vertex="1">
          <mxGeometry x="720" y="230" width="100" height="30" as="geometry" />
        </mxCell>
        <mxCell id="q-akzQOQ44o_kOeG1WCX-51" value="" style="edgeStyle=entityRelationEdgeStyle;startArrow=none;endArrow=none;segment=10;curved=1;sourcePerimeterSpacing=0;targetPerimeterSpacing=0;rounded=0;fontFamily=Comic Sans MS;" parent="D6cP3bkCtLaL_WxXHLN0-1" source="q-akzQOQ44o_kOeG1WCX-42" target="q-akzQOQ44o_kOeG1WCX-52" edge="1">
          <mxGeometry width="80" height="20" as="geometry">
            <mxPoint x="640" y="-727.625" as="sourcePoint" />
          </mxGeometry>
        </mxCell>
        <mxCell id="q-akzQOQ44o_kOeG1WCX-52" value="&lt;div style=&quot;&quot;&gt;CalliGAN&lt;/div&gt;&lt;div style=&quot;&quot;&gt;517 个&lt;/div&gt;" style="whiteSpace=wrap;html=1;shape=partialRectangle;top=0;left=0;bottom=1;right=0;points=[[0,1],[1,1]];fillColor=none;align=center;verticalAlign=bottom;routingCenterY=0.5;snapToPoint=1;recursiveResize=0;autosize=1;treeFolding=1;treeMoving=1;newEdgeStyle={&quot;edgeStyle&quot;:&quot;entityRelationEdgeStyle&quot;,&quot;startArrow&quot;:&quot;none&quot;,&quot;endArrow&quot;:&quot;none&quot;,&quot;segment&quot;:10,&quot;curved&quot;:1,&quot;sourcePerimeterSpacing&quot;:0,&quot;targetPerimeterSpacing&quot;:0};fontFamily=Comic Sans MS;" parent="D6cP3bkCtLaL_WxXHLN0-1" vertex="1">
          <mxGeometry x="680" y="300" width="90" height="40" as="geometry" />
        </mxCell>
        <mxCell id="q-akzQOQ44o_kOeG1WCX-53" value="" style="edgeStyle=entityRelationEdgeStyle;startArrow=none;endArrow=none;segment=10;curved=1;sourcePerimeterSpacing=0;targetPerimeterSpacing=0;rounded=0;fontFamily=Comic Sans MS;" parent="D6cP3bkCtLaL_WxXHLN0-1" source="q-akzQOQ44o_kOeG1WCX-42" target="q-akzQOQ44o_kOeG1WCX-54" edge="1">
          <mxGeometry width="80" height="20" as="geometry">
            <mxPoint x="840" y="-585.625" as="sourcePoint" />
          </mxGeometry>
        </mxCell>
        <mxCell id="q-akzQOQ44o_kOeG1WCX-54" value="&lt;div style=&quot;&quot;&gt;LF-Font&lt;/div&gt;" style="whiteSpace=wrap;html=1;shape=partialRectangle;top=0;left=0;bottom=1;right=0;points=[[0,1],[1,1]];fillColor=none;align=center;verticalAlign=bottom;routingCenterY=0.5;snapToPoint=1;recursiveResize=0;autosize=1;treeFolding=1;treeMoving=1;newEdgeStyle={&quot;edgeStyle&quot;:&quot;entityRelationEdgeStyle&quot;,&quot;startArrow&quot;:&quot;none&quot;,&quot;endArrow&quot;:&quot;none&quot;,&quot;segment&quot;:10,&quot;curved&quot;:1,&quot;sourcePerimeterSpacing&quot;:0,&quot;targetPerimeterSpacing&quot;:0};fontFamily=Comic Sans MS;" parent="D6cP3bkCtLaL_WxXHLN0-1" vertex="1">
          <mxGeometry x="680" y="380" width="80" height="30" as="geometry" />
        </mxCell>
        <mxCell id="q-akzQOQ44o_kOeG1WCX-57" value="canny map" style="whiteSpace=wrap;html=1;shape=partialRectangle;top=0;left=0;bottom=1;right=0;points=[[0,1],[1,1]];fillColor=none;align=center;verticalAlign=bottom;routingCenterY=0.5;snapToPoint=1;recursiveResize=0;autosize=1;treeFolding=1;treeMoving=1;newEdgeStyle={&quot;edgeStyle&quot;:&quot;entityRelationEdgeStyle&quot;,&quot;startArrow&quot;:&quot;none&quot;,&quot;endArrow&quot;:&quot;none&quot;,&quot;segment&quot;:10,&quot;curved&quot;:1,&quot;sourcePerimeterSpacing&quot;:0,&quot;targetPerimeterSpacing&quot;:0};fontFamily=Comic Sans MS;" parent="D6cP3bkCtLaL_WxXHLN0-1" vertex="1">
          <mxGeometry x="290" y="267.5" width="100" height="30" as="geometry" />
        </mxCell>
        <mxCell id="q-akzQOQ44o_kOeG1WCX-58" value="" style="edgeStyle=entityRelationEdgeStyle;startArrow=none;endArrow=none;segment=10;curved=1;sourcePerimeterSpacing=0;targetPerimeterSpacing=0;rounded=0;fontFamily=Comic Sans MS;" parent="D6cP3bkCtLaL_WxXHLN0-1" source="q-akzQOQ44o_kOeG1WCX-4" target="q-akzQOQ44o_kOeG1WCX-57" edge="1">
          <mxGeometry width="80" height="20" as="geometry" />
        </mxCell>
        <mxCell id="q-akzQOQ44o_kOeG1WCX-61" value="" style="edgeStyle=entityRelationEdgeStyle;startArrow=none;endArrow=none;segment=10;curved=1;sourcePerimeterSpacing=0;targetPerimeterSpacing=0;rounded=0;fontFamily=Comic Sans MS;" parent="D6cP3bkCtLaL_WxXHLN0-1" source="q-akzQOQ44o_kOeG1WCX-4" target="q-akzQOQ44o_kOeG1WCX-62" edge="1">
          <mxGeometry width="80" height="20" as="geometry">
            <mxPoint x="470" y="-216.625" as="sourcePoint" />
          </mxGeometry>
        </mxCell>
        <mxCell id="q-akzQOQ44o_kOeG1WCX-62" value="skeleton/&lt;span style=&quot;background-color: transparent; color: light-dark(rgb(0, 0, 0), rgb(255, 255, 255));&quot;&gt;Zhang-Suen 算法&lt;/span&gt;" style="whiteSpace=wrap;html=1;shape=partialRectangle;top=0;left=0;bottom=1;right=0;points=[[0,1],[1,1]];fillColor=none;align=center;verticalAlign=bottom;routingCenterY=0.5;snapToPoint=1;recursiveResize=0;autosize=1;treeFolding=1;treeMoving=1;newEdgeStyle={&quot;edgeStyle&quot;:&quot;entityRelationEdgeStyle&quot;,&quot;startArrow&quot;:&quot;none&quot;,&quot;endArrow&quot;:&quot;none&quot;,&quot;segment&quot;:10,&quot;curved&quot;:1,&quot;sourcePerimeterSpacing&quot;:0,&quot;targetPerimeterSpacing&quot;:0};fontFamily=Comic Sans MS;" parent="D6cP3bkCtLaL_WxXHLN0-1" vertex="1">
          <mxGeometry x="290" y="410" width="190" height="30" as="geometry" />
        </mxCell>
        <mxCell id="q-akzQOQ44o_kOeG1WCX-147" value="" style="edgeStyle=entityRelationEdgeStyle;rounded=0;orthogonalLoop=1;jettySize=auto;html=1;startArrow=none;endArrow=none;segment=10;curved=1;sourcePerimeterSpacing=0;targetPerimeterSpacing=0;fontFamily=Comic Sans MS;" parent="D6cP3bkCtLaL_WxXHLN0-1" source="D6cP3bkCtLaL_WxXHLN0-2" target="q-akzQOQ44o_kOeG1WCX-148" edge="1">
          <mxGeometry relative="1" as="geometry">
            <mxPoint x="380" y="425.875" as="sourcePoint" />
          </mxGeometry>
        </mxCell>
        <mxCell id="q-akzQOQ44o_kOeG1WCX-148" value="Style" style="whiteSpace=wrap;html=1;shape=ellipse;perimeter=ellipsePerimeter;newEdgeStyle={&quot;edgeStyle&quot;:&quot;entityRelationEdgeStyle&quot;,&quot;startArrow&quot;:&quot;none&quot;,&quot;endArrow&quot;:&quot;none&quot;,&quot;segment&quot;:10,&quot;curved&quot;:1,&quot;sourcePerimeterSpacing&quot;:0,&quot;targetPerimeterSpacing&quot;:0};treeFolding=1;treeMoving=1;fontFamily=Comic Sans MS;sketch=1;curveFitting=1;jiggle=2;fillColor=#fff2cc;strokeColor=#d6b656;" parent="D6cP3bkCtLaL_WxXHLN0-1" vertex="1">
          <mxGeometry x="160" y="480" width="70" height="30" as="geometry" />
        </mxCell>
        <mxCell id="q-akzQOQ44o_kOeG1WCX-149" value="属性" style="whiteSpace=wrap;html=1;shape=partialRectangle;top=0;left=0;bottom=1;right=0;points=[[0,1],[1,1]];fillColor=none;align=center;verticalAlign=bottom;routingCenterY=0.5;snapToPoint=1;recursiveResize=0;autosize=1;treeFolding=1;treeMoving=1;newEdgeStyle={&quot;edgeStyle&quot;:&quot;entityRelationEdgeStyle&quot;,&quot;startArrow&quot;:&quot;none&quot;,&quot;endArrow&quot;:&quot;none&quot;,&quot;segment&quot;:10,&quot;curved&quot;:1,&quot;sourcePerimeterSpacing&quot;:0,&quot;targetPerimeterSpacing&quot;:0};fontFamily=Comic Sans MS;" parent="D6cP3bkCtLaL_WxXHLN0-1" vertex="1">
          <mxGeometry x="280" y="480" width="60" height="30" as="geometry" />
        </mxCell>
        <mxCell id="q-akzQOQ44o_kOeG1WCX-150" value="" style="edgeStyle=entityRelationEdgeStyle;startArrow=none;endArrow=none;segment=10;curved=1;sourcePerimeterSpacing=0;targetPerimeterSpacing=0;rounded=0;fontFamily=Comic Sans MS;" parent="D6cP3bkCtLaL_WxXHLN0-1" source="q-akzQOQ44o_kOeG1WCX-148" target="q-akzQOQ44o_kOeG1WCX-149" edge="1">
          <mxGeometry x="50" y="84" width="80" height="20" as="geometry" />
        </mxCell>
        <mxCell id="q-akzQOQ44o_kOeG1WCX-151" value="" style="edgeStyle=entityRelationEdgeStyle;startArrow=none;endArrow=none;segment=10;curved=1;sourcePerimeterSpacing=0;targetPerimeterSpacing=0;rounded=0;fontFamily=Comic Sans MS;" parent="D6cP3bkCtLaL_WxXHLN0-1" source="q-akzQOQ44o_kOeG1WCX-149" target="q-akzQOQ44o_kOeG1WCX-152" edge="1">
          <mxGeometry x="50" y="84" width="80" height="20" as="geometry">
            <mxPoint x="510" y="875" as="sourcePoint" />
          </mxGeometry>
        </mxCell>
        <mxCell id="q-akzQOQ44o_kOeG1WCX-152" value="&lt;span style=&quot;&quot;&gt;Attribute2Font&lt;/span&gt;" style="whiteSpace=wrap;html=1;shape=partialRectangle;top=0;left=0;bottom=1;right=0;points=[[0,1],[1,1]];fillColor=none;align=center;verticalAlign=bottom;routingCenterY=0.5;snapToPoint=1;recursiveResize=0;autosize=1;treeFolding=1;treeMoving=1;newEdgeStyle={&quot;edgeStyle&quot;:&quot;entityRelationEdgeStyle&quot;,&quot;startArrow&quot;:&quot;none&quot;,&quot;endArrow&quot;:&quot;none&quot;,&quot;segment&quot;:10,&quot;curved&quot;:1,&quot;sourcePerimeterSpacing&quot;:0,&quot;targetPerimeterSpacing&quot;:0};fontFamily=Comic Sans MS;" parent="D6cP3bkCtLaL_WxXHLN0-1" vertex="1">
          <mxGeometry x="390" y="480" width="130" height="30" as="geometry" />
        </mxCell>
        <mxCell id="q-akzQOQ44o_kOeG1WCX-21" value="2. Pre-Process" style="swimlane;startSize=20;horizontal=0;childLayout=treeLayout;horizontalTree=1;sortEdges=1;resizable=0;containerType=tree;fontSize=12;fontFamily=Comic Sans MS;sketch=1;curveFitting=1;jiggle=2;" parent="1" vertex="1">
          <mxGeometry x="1456" y="440" width="890" height="400" as="geometry" />
        </mxCell>
        <mxCell id="q-akzQOQ44o_kOeG1WCX-22" value="Pre-Process" style="whiteSpace=wrap;html=1;shape=ellipse;perimeter=ellipsePerimeter;newEdgeStyle={&quot;edgeStyle&quot;:&quot;entityRelationEdgeStyle&quot;,&quot;startArrow&quot;:&quot;none&quot;,&quot;endArrow&quot;:&quot;none&quot;,&quot;segment&quot;:10,&quot;curved&quot;:1,&quot;sourcePerimeterSpacing&quot;:0,&quot;targetPerimeterSpacing&quot;:0};treeFolding=1;treeMoving=1;fontFamily=Comic Sans MS;sketch=1;curveFitting=1;jiggle=2;fillColor=#f8cecc;strokeColor=#b85450;" parent="q-akzQOQ44o_kOeG1WCX-21" vertex="1">
          <mxGeometry x="40" y="245" width="110" height="30" as="geometry" />
        </mxCell>
        <mxCell id="q-akzQOQ44o_kOeG1WCX-23" value="" style="edgeStyle=entityRelationEdgeStyle;rounded=0;orthogonalLoop=1;jettySize=auto;html=1;startArrow=none;endArrow=none;segment=10;curved=1;sourcePerimeterSpacing=0;targetPerimeterSpacing=0;fontFamily=Comic Sans MS;" parent="q-akzQOQ44o_kOeG1WCX-21" source="q-akzQOQ44o_kOeG1WCX-22" target="q-akzQOQ44o_kOeG1WCX-24" edge="1">
          <mxGeometry relative="1" as="geometry" />
        </mxCell>
        <mxCell id="q-akzQOQ44o_kOeG1WCX-24" value="Data Augmentation" style="whiteSpace=wrap;html=1;shape=ellipse;perimeter=ellipsePerimeter;newEdgeStyle={&quot;edgeStyle&quot;:&quot;entityRelationEdgeStyle&quot;,&quot;startArrow&quot;:&quot;none&quot;,&quot;endArrow&quot;:&quot;none&quot;,&quot;segment&quot;:10,&quot;curved&quot;:1,&quot;sourcePerimeterSpacing&quot;:0,&quot;targetPerimeterSpacing&quot;:0};treeFolding=1;treeMoving=1;fontFamily=Comic Sans MS;sketch=1;curveFitting=1;jiggle=2;fillColor=#fff2cc;strokeColor=#d6b656;" parent="q-akzQOQ44o_kOeG1WCX-21" vertex="1">
          <mxGeometry x="200" y="145" width="150" height="30" as="geometry" />
        </mxCell>
        <mxCell id="q-akzQOQ44o_kOeG1WCX-37" value="CF-Font&lt;br&gt;&lt;div&gt;&lt;span style=&quot;&quot;&gt;通过聚类自适应选择 content image&lt;/span&gt;&lt;/div&gt;" style="whiteSpace=wrap;html=1;shape=partialRectangle;top=0;left=0;bottom=1;right=0;points=[[0,1],[1,1]];fillColor=none;align=center;verticalAlign=bottom;routingCenterY=0.5;snapToPoint=1;recursiveResize=0;autosize=1;treeFolding=1;treeMoving=1;newEdgeStyle={&quot;edgeStyle&quot;:&quot;entityRelationEdgeStyle&quot;,&quot;startArrow&quot;:&quot;none&quot;,&quot;endArrow&quot;:&quot;none&quot;,&quot;segment&quot;:10,&quot;curved&quot;:1,&quot;sourcePerimeterSpacing&quot;:0,&quot;targetPerimeterSpacing&quot;:0};fontFamily=Comic Sans MS;" parent="q-akzQOQ44o_kOeG1WCX-21" vertex="1">
          <mxGeometry x="400" y="20" width="230" height="40" as="geometry" />
        </mxCell>
        <mxCell id="q-akzQOQ44o_kOeG1WCX-38" value="" style="edgeStyle=entityRelationEdgeStyle;startArrow=none;endArrow=none;segment=10;curved=1;sourcePerimeterSpacing=0;targetPerimeterSpacing=0;rounded=0;fontFamily=Comic Sans MS;" parent="q-akzQOQ44o_kOeG1WCX-21" source="q-akzQOQ44o_kOeG1WCX-24" target="q-akzQOQ44o_kOeG1WCX-37" edge="1">
          <mxGeometry width="80" height="20" as="geometry" />
        </mxCell>
        <mxCell id="q-akzQOQ44o_kOeG1WCX-55" value="" style="edgeStyle=entityRelationEdgeStyle;startArrow=none;endArrow=none;segment=10;curved=1;sourcePerimeterSpacing=0;targetPerimeterSpacing=0;rounded=0;fontFamily=Comic Sans MS;" parent="q-akzQOQ44o_kOeG1WCX-21" source="q-akzQOQ44o_kOeG1WCX-24" target="q-akzQOQ44o_kOeG1WCX-56" edge="1">
          <mxGeometry width="80" height="20" as="geometry">
            <mxPoint x="590" y="340" as="sourcePoint" />
          </mxGeometry>
        </mxCell>
        <mxCell id="q-akzQOQ44o_kOeG1WCX-56" value="Fs-Font&lt;div&gt;通过分解表，让 reference set 中尽量包含 content image 中出现的 component&lt;/div&gt;" style="whiteSpace=wrap;html=1;shape=partialRectangle;top=0;left=0;bottom=1;right=0;points=[[0,1],[1,1]];fillColor=none;align=center;verticalAlign=bottom;routingCenterY=0.5;snapToPoint=1;recursiveResize=0;autosize=1;treeFolding=1;treeMoving=1;newEdgeStyle={&quot;edgeStyle&quot;:&quot;entityRelationEdgeStyle&quot;,&quot;startArrow&quot;:&quot;none&quot;,&quot;endArrow&quot;:&quot;none&quot;,&quot;segment&quot;:10,&quot;curved&quot;:1,&quot;sourcePerimeterSpacing&quot;:0,&quot;targetPerimeterSpacing&quot;:0};fontFamily=Comic Sans MS;" parent="q-akzQOQ44o_kOeG1WCX-21" vertex="1">
          <mxGeometry x="400" y="100" width="470" height="40" as="geometry" />
        </mxCell>
        <mxCell id="q-akzQOQ44o_kOeG1WCX-251" value="finetune" style="whiteSpace=wrap;html=1;shape=partialRectangle;top=0;left=0;bottom=1;right=0;points=[[0,1],[1,1]];fillColor=none;align=center;verticalAlign=bottom;routingCenterY=0.5;snapToPoint=1;recursiveResize=0;autosize=1;treeFolding=1;treeMoving=1;newEdgeStyle={&quot;edgeStyle&quot;:&quot;entityRelationEdgeStyle&quot;,&quot;startArrow&quot;:&quot;none&quot;,&quot;endArrow&quot;:&quot;none&quot;,&quot;segment&quot;:10,&quot;curved&quot;:1,&quot;sourcePerimeterSpacing&quot;:0,&quot;targetPerimeterSpacing&quot;:0};" parent="q-akzQOQ44o_kOeG1WCX-21" vertex="1">
          <mxGeometry x="200" y="345" width="80" height="30" as="geometry" />
        </mxCell>
        <mxCell id="q-akzQOQ44o_kOeG1WCX-252" value="" style="edgeStyle=entityRelationEdgeStyle;startArrow=none;endArrow=none;segment=10;curved=1;sourcePerimeterSpacing=0;targetPerimeterSpacing=0;rounded=0;" parent="q-akzQOQ44o_kOeG1WCX-21" source="q-akzQOQ44o_kOeG1WCX-22" target="q-akzQOQ44o_kOeG1WCX-251" edge="1">
          <mxGeometry x="-1070" y="-295" width="80" height="20" as="geometry" />
        </mxCell>
        <mxCell id="q-akzQOQ44o_kOeG1WCX-253" value="" style="edgeStyle=entityRelationEdgeStyle;startArrow=none;endArrow=none;segment=10;curved=1;sourcePerimeterSpacing=0;targetPerimeterSpacing=0;rounded=0;" parent="q-akzQOQ44o_kOeG1WCX-21" source="q-akzQOQ44o_kOeG1WCX-251" target="q-akzQOQ44o_kOeG1WCX-254" edge="1">
          <mxGeometry x="-1070" y="-295" width="80" height="20" as="geometry">
            <mxPoint x="1450" y="70" as="sourcePoint" />
          </mxGeometry>
        </mxCell>
        <mxCell id="q-akzQOQ44o_kOeG1WCX-254" value="&lt;div style=&quot;font-family: &amp;quot;Comic Sans MS&amp;quot;;&quot;&gt;CF-Font&lt;/div&gt;&lt;span style=&quot;font-family: &amp;quot;Comic Sans MS&amp;quot;;&quot;&gt;在推理前使用 reference image 微调 style encoding&lt;/span&gt;" style="whiteSpace=wrap;html=1;shape=partialRectangle;top=0;left=0;bottom=1;right=0;points=[[0,1],[1,1]];fillColor=none;align=center;verticalAlign=bottom;routingCenterY=0.5;snapToPoint=1;recursiveResize=0;autosize=1;treeFolding=1;treeMoving=1;newEdgeStyle={&quot;edgeStyle&quot;:&quot;entityRelationEdgeStyle&quot;,&quot;startArrow&quot;:&quot;none&quot;,&quot;endArrow&quot;:&quot;none&quot;,&quot;segment&quot;:10,&quot;curved&quot;:1,&quot;sourcePerimeterSpacing&quot;:0,&quot;targetPerimeterSpacing&quot;:0};" parent="q-akzQOQ44o_kOeG1WCX-21" vertex="1">
          <mxGeometry x="330" y="340" width="320" height="40" as="geometry" />
        </mxCell>
        <mxCell id="q-akzQOQ44o_kOeG1WCX-370" value="" style="edgeStyle=entityRelationEdgeStyle;startArrow=none;endArrow=none;segment=10;curved=1;sourcePerimeterSpacing=0;targetPerimeterSpacing=0;rounded=0;fontFamily=Comic Sans MS;" parent="q-akzQOQ44o_kOeG1WCX-21" source="q-akzQOQ44o_kOeG1WCX-24" target="q-akzQOQ44o_kOeG1WCX-371" edge="1">
          <mxGeometry width="80" height="20" as="geometry">
            <mxPoint x="1670" y="167.5" as="sourcePoint" />
          </mxGeometry>
        </mxCell>
        <mxCell id="q-akzQOQ44o_kOeG1WCX-371" value="DG-Font++&lt;div&gt;正样本缩放、旋转、平移等&lt;/div&gt;" style="whiteSpace=wrap;html=1;shape=partialRectangle;top=0;left=0;bottom=1;right=0;points=[[0,1],[1,1]];fillColor=none;align=center;verticalAlign=bottom;routingCenterY=0.5;snapToPoint=1;recursiveResize=0;autosize=1;treeFolding=1;treeMoving=1;newEdgeStyle={&quot;edgeStyle&quot;:&quot;entityRelationEdgeStyle&quot;,&quot;startArrow&quot;:&quot;none&quot;,&quot;endArrow&quot;:&quot;none&quot;,&quot;segment&quot;:10,&quot;curved&quot;:1,&quot;sourcePerimeterSpacing&quot;:0,&quot;targetPerimeterSpacing&quot;:0};fontFamily=Comic Sans MS;" parent="q-akzQOQ44o_kOeG1WCX-21" vertex="1">
          <mxGeometry x="400" y="180" width="180" height="40" as="geometry" />
        </mxCell>
        <mxCell id="q-akzQOQ44o_kOeG1WCX-372" value="" style="edgeStyle=entityRelationEdgeStyle;startArrow=none;endArrow=none;segment=10;curved=1;sourcePerimeterSpacing=0;targetPerimeterSpacing=0;rounded=0;fontFamily=Comic Sans MS;" parent="q-akzQOQ44o_kOeG1WCX-21" source="q-akzQOQ44o_kOeG1WCX-24" target="q-akzQOQ44o_kOeG1WCX-373" edge="1">
          <mxGeometry width="80" height="20" as="geometry">
            <mxPoint x="1670" y="215" as="sourcePoint" />
          </mxGeometry>
        </mxCell>
        <mxCell id="q-akzQOQ44o_kOeG1WCX-373" value="DS-Font&lt;div&gt;将同属于一个 font 的 style 做聚类作为正样本&lt;/div&gt;" style="whiteSpace=wrap;html=1;shape=partialRectangle;top=0;left=0;bottom=1;right=0;points=[[0,1],[1,1]];fillColor=none;align=center;verticalAlign=bottom;routingCenterY=0.5;snapToPoint=1;recursiveResize=0;autosize=1;treeFolding=1;treeMoving=1;newEdgeStyle={&quot;edgeStyle&quot;:&quot;entityRelationEdgeStyle&quot;,&quot;startArrow&quot;:&quot;none&quot;,&quot;endArrow&quot;:&quot;none&quot;,&quot;segment&quot;:10,&quot;curved&quot;:1,&quot;sourcePerimeterSpacing&quot;:0,&quot;targetPerimeterSpacing&quot;:0};fontFamily=Comic Sans MS;" parent="q-akzQOQ44o_kOeG1WCX-21" vertex="1">
          <mxGeometry x="400" y="260" width="290" height="40" as="geometry" />
        </mxCell>
        <mxCell id="q-akzQOQ44o_kOeG1WCX-65" value="3. Extraction" style="swimlane;startSize=20;horizontal=0;childLayout=treeLayout;horizontalTree=1;sortEdges=1;resizable=0;containerType=tree;fontSize=12;fontFamily=Comic Sans MS;sketch=1;curveFitting=1;jiggle=2;" parent="1" vertex="1">
          <mxGeometry x="1456" y="970" width="770" height="220" as="geometry" />
        </mxCell>
        <mxCell id="q-akzQOQ44o_kOeG1WCX-66" value="Extraction" style="whiteSpace=wrap;html=1;shape=ellipse;perimeter=ellipsePerimeter;newEdgeStyle={&quot;edgeStyle&quot;:&quot;entityRelationEdgeStyle&quot;,&quot;startArrow&quot;:&quot;none&quot;,&quot;endArrow&quot;:&quot;none&quot;,&quot;segment&quot;:10,&quot;curved&quot;:1,&quot;sourcePerimeterSpacing&quot;:0,&quot;targetPerimeterSpacing&quot;:0};treeFolding=1;treeMoving=1;fontFamily=Comic Sans MS;sketch=1;curveFitting=1;jiggle=2;fillColor=#f8cecc;strokeColor=#b85450;" parent="q-akzQOQ44o_kOeG1WCX-65" vertex="1">
          <mxGeometry x="40" y="75" width="100" height="30" as="geometry" />
        </mxCell>
        <mxCell id="q-akzQOQ44o_kOeG1WCX-93" value="" style="edgeStyle=entityRelationEdgeStyle;rounded=0;orthogonalLoop=1;jettySize=auto;html=1;startArrow=none;endArrow=none;segment=10;curved=1;sourcePerimeterSpacing=0;targetPerimeterSpacing=0;fontFamily=Comic Sans MS;" parent="q-akzQOQ44o_kOeG1WCX-65" source="q-akzQOQ44o_kOeG1WCX-66" target="q-akzQOQ44o_kOeG1WCX-94" edge="1">
          <mxGeometry relative="1" as="geometry" />
        </mxCell>
        <mxCell id="q-akzQOQ44o_kOeG1WCX-94" value="General" style="whiteSpace=wrap;html=1;shape=ellipse;perimeter=ellipsePerimeter;newEdgeStyle={&quot;edgeStyle&quot;:&quot;entityRelationEdgeStyle&quot;,&quot;startArrow&quot;:&quot;none&quot;,&quot;endArrow&quot;:&quot;none&quot;,&quot;segment&quot;:10,&quot;curved&quot;:1,&quot;sourcePerimeterSpacing&quot;:0,&quot;targetPerimeterSpacing&quot;:0};treeFolding=1;treeMoving=1;fontFamily=Comic Sans MS;sketch=1;curveFitting=1;jiggle=2;fillColor=#fff2cc;strokeColor=#d6b656;" parent="q-akzQOQ44o_kOeG1WCX-65" vertex="1">
          <mxGeometry x="190" y="75" width="80" height="30" as="geometry" />
        </mxCell>
        <mxCell id="q-akzQOQ44o_kOeG1WCX-101" value="矩阵分解" style="whiteSpace=wrap;html=1;shape=partialRectangle;top=0;left=0;bottom=1;right=0;points=[[0,1],[1,1]];fillColor=none;align=center;verticalAlign=bottom;routingCenterY=0.5;snapToPoint=1;recursiveResize=0;autosize=1;treeFolding=1;treeMoving=1;newEdgeStyle={&quot;edgeStyle&quot;:&quot;entityRelationEdgeStyle&quot;,&quot;startArrow&quot;:&quot;none&quot;,&quot;endArrow&quot;:&quot;none&quot;,&quot;segment&quot;:10,&quot;curved&quot;:1,&quot;sourcePerimeterSpacing&quot;:0,&quot;targetPerimeterSpacing&quot;:0};fontFamily=Comic Sans MS;" parent="q-akzQOQ44o_kOeG1WCX-65" vertex="1">
          <mxGeometry x="320" y="20" width="90" height="30" as="geometry" />
        </mxCell>
        <mxCell id="q-akzQOQ44o_kOeG1WCX-102" value="" style="edgeStyle=entityRelationEdgeStyle;startArrow=none;endArrow=none;segment=10;curved=1;sourcePerimeterSpacing=0;targetPerimeterSpacing=0;rounded=0;fontFamily=Comic Sans MS;" parent="q-akzQOQ44o_kOeG1WCX-65" source="q-akzQOQ44o_kOeG1WCX-94" target="q-akzQOQ44o_kOeG1WCX-101" edge="1">
          <mxGeometry width="80" height="20" as="geometry" />
        </mxCell>
        <mxCell id="q-akzQOQ44o_kOeG1WCX-103" value="" style="edgeStyle=entityRelationEdgeStyle;startArrow=none;endArrow=none;segment=10;curved=1;sourcePerimeterSpacing=0;targetPerimeterSpacing=0;rounded=0;fontFamily=Comic Sans MS;" parent="q-akzQOQ44o_kOeG1WCX-65" source="q-akzQOQ44o_kOeG1WCX-101" target="q-akzQOQ44o_kOeG1WCX-104" edge="1">
          <mxGeometry width="80" height="20" as="geometry">
            <mxPoint x="520" y="975" as="sourcePoint" />
          </mxGeometry>
        </mxCell>
        <mxCell id="q-akzQOQ44o_kOeG1WCX-104" value="LF-Font" style="whiteSpace=wrap;html=1;shape=partialRectangle;top=0;left=0;bottom=1;right=0;points=[[0,1],[1,1]];fillColor=none;align=center;verticalAlign=bottom;routingCenterY=0.5;snapToPoint=1;recursiveResize=0;autosize=1;treeFolding=1;treeMoving=1;newEdgeStyle={&quot;edgeStyle&quot;:&quot;entityRelationEdgeStyle&quot;,&quot;startArrow&quot;:&quot;none&quot;,&quot;endArrow&quot;:&quot;none&quot;,&quot;segment&quot;:10,&quot;curved&quot;:1,&quot;sourcePerimeterSpacing&quot;:0,&quot;targetPerimeterSpacing&quot;:0};fontFamily=Comic Sans MS;" parent="q-akzQOQ44o_kOeG1WCX-65" vertex="1">
          <mxGeometry x="460" y="20" width="80" height="30" as="geometry" />
        </mxCell>
        <mxCell id="q-akzQOQ44o_kOeG1WCX-161" value="" style="edgeStyle=entityRelationEdgeStyle;startArrow=none;endArrow=none;segment=10;curved=1;sourcePerimeterSpacing=0;targetPerimeterSpacing=0;rounded=0;fontFamily=Comic Sans MS;" parent="q-akzQOQ44o_kOeG1WCX-65" source="q-akzQOQ44o_kOeG1WCX-94" target="q-akzQOQ44o_kOeG1WCX-162" edge="1">
          <mxGeometry width="80" height="20" as="geometry">
            <mxPoint x="1550" y="725" as="sourcePoint" />
          </mxGeometry>
        </mxCell>
        <mxCell id="q-akzQOQ44o_kOeG1WCX-162" value="ViT / Patchify" style="whiteSpace=wrap;html=1;shape=partialRectangle;top=0;left=0;bottom=1;right=0;points=[[0,1],[1,1]];fillColor=none;align=center;verticalAlign=bottom;routingCenterY=0.5;snapToPoint=1;recursiveResize=0;autosize=1;treeFolding=1;treeMoving=1;newEdgeStyle={&quot;edgeStyle&quot;:&quot;entityRelationEdgeStyle&quot;,&quot;startArrow&quot;:&quot;none&quot;,&quot;endArrow&quot;:&quot;none&quot;,&quot;segment&quot;:10,&quot;curved&quot;:1,&quot;sourcePerimeterSpacing&quot;:0,&quot;targetPerimeterSpacing&quot;:0};fontFamily=Comic Sans MS;" parent="q-akzQOQ44o_kOeG1WCX-65" vertex="1">
          <mxGeometry x="320" y="130" width="120" height="30" as="geometry" />
        </mxCell>
        <mxCell id="q-akzQOQ44o_kOeG1WCX-163" value="" style="edgeStyle=entityRelationEdgeStyle;startArrow=none;endArrow=none;segment=10;curved=1;sourcePerimeterSpacing=0;targetPerimeterSpacing=0;rounded=0;fontFamily=Comic Sans MS;" parent="q-akzQOQ44o_kOeG1WCX-65" source="q-akzQOQ44o_kOeG1WCX-162" target="q-akzQOQ44o_kOeG1WCX-164" edge="1">
          <mxGeometry width="80" height="20" as="geometry">
            <mxPoint x="1550" y="760" as="sourcePoint" />
          </mxGeometry>
        </mxCell>
        <mxCell id="q-akzQOQ44o_kOeG1WCX-164" value="FontTransformer" style="whiteSpace=wrap;html=1;shape=partialRectangle;top=0;left=0;bottom=1;right=0;points=[[0,1],[1,1]];fillColor=none;align=center;verticalAlign=bottom;routingCenterY=0.5;snapToPoint=1;recursiveResize=0;autosize=1;treeFolding=1;treeMoving=1;newEdgeStyle={&quot;edgeStyle&quot;:&quot;entityRelationEdgeStyle&quot;,&quot;startArrow&quot;:&quot;none&quot;,&quot;endArrow&quot;:&quot;none&quot;,&quot;segment&quot;:10,&quot;curved&quot;:1,&quot;sourcePerimeterSpacing&quot;:0,&quot;targetPerimeterSpacing&quot;:0};fontFamily=Comic Sans MS;" parent="q-akzQOQ44o_kOeG1WCX-65" vertex="1">
          <mxGeometry x="490" y="90" width="140" height="30" as="geometry" />
        </mxCell>
        <mxCell id="q-akzQOQ44o_kOeG1WCX-223" value="" style="edgeStyle=entityRelationEdgeStyle;startArrow=none;endArrow=none;segment=10;curved=1;sourcePerimeterSpacing=0;targetPerimeterSpacing=0;rounded=0;fontFamily=Comic Sans MS;" parent="q-akzQOQ44o_kOeG1WCX-65" source="q-akzQOQ44o_kOeG1WCX-162" target="q-akzQOQ44o_kOeG1WCX-224" edge="1">
          <mxGeometry width="80" height="20" as="geometry">
            <mxPoint x="1740" y="830" as="sourcePoint" />
          </mxGeometry>
        </mxCell>
        <mxCell id="q-akzQOQ44o_kOeG1WCX-224" value="FTransGAN&lt;br&gt;&lt;div&gt;在不同分辨率 / 不同大小的 patch 上融合&lt;/div&gt;" style="whiteSpace=wrap;html=1;shape=partialRectangle;top=0;left=0;bottom=1;right=0;points=[[0,1],[1,1]];fillColor=none;align=center;verticalAlign=bottom;routingCenterY=0.5;snapToPoint=1;recursiveResize=0;autosize=1;treeFolding=1;treeMoving=1;newEdgeStyle={&quot;edgeStyle&quot;:&quot;entityRelationEdgeStyle&quot;,&quot;startArrow&quot;:&quot;none&quot;,&quot;endArrow&quot;:&quot;none&quot;,&quot;segment&quot;:10,&quot;curved&quot;:1,&quot;sourcePerimeterSpacing&quot;:0,&quot;targetPerimeterSpacing&quot;:0};fontFamily=Comic Sans MS;" parent="q-akzQOQ44o_kOeG1WCX-65" vertex="1">
          <mxGeometry x="490" y="160" width="260" height="40" as="geometry" />
        </mxCell>
        <mxCell id="q-akzQOQ44o_kOeG1WCX-105" value="4. Conditoning" style="swimlane;startSize=20;horizontal=0;childLayout=treeLayout;horizontalTree=1;sortEdges=1;resizable=0;containerType=tree;fontSize=12;fontFamily=Comic Sans MS;sketch=1;curveFitting=1;jiggle=2;" parent="1" vertex="1">
          <mxGeometry x="330" y="1100" width="900" height="1010" as="geometry" />
        </mxCell>
        <mxCell id="q-akzQOQ44o_kOeG1WCX-106" value="Conditioning" style="whiteSpace=wrap;html=1;shape=ellipse;perimeter=ellipsePerimeter;newEdgeStyle={&quot;edgeStyle&quot;:&quot;entityRelationEdgeStyle&quot;,&quot;startArrow&quot;:&quot;none&quot;,&quot;endArrow&quot;:&quot;none&quot;,&quot;segment&quot;:10,&quot;curved&quot;:1,&quot;sourcePerimeterSpacing&quot;:0,&quot;targetPerimeterSpacing&quot;:0};treeFolding=1;treeMoving=1;fontFamily=Comic Sans MS;sketch=1;curveFitting=1;jiggle=2;fillColor=#f8cecc;strokeColor=#b85450;" parent="q-akzQOQ44o_kOeG1WCX-105" vertex="1">
          <mxGeometry x="40" y="576.25" width="110" height="30" as="geometry" />
        </mxCell>
        <mxCell id="q-akzQOQ44o_kOeG1WCX-133" value="" style="edgeStyle=entityRelationEdgeStyle;rounded=0;orthogonalLoop=1;jettySize=auto;html=1;startArrow=none;endArrow=none;segment=10;curved=1;sourcePerimeterSpacing=0;targetPerimeterSpacing=0;fontFamily=Comic Sans MS;" parent="q-akzQOQ44o_kOeG1WCX-105" source="q-akzQOQ44o_kOeG1WCX-106" target="q-akzQOQ44o_kOeG1WCX-134" edge="1">
          <mxGeometry relative="1" as="geometry" />
        </mxCell>
        <mxCell id="q-akzQOQ44o_kOeG1WCX-134" value="Fusion" style="whiteSpace=wrap;html=1;shape=ellipse;perimeter=ellipsePerimeter;newEdgeStyle={&quot;edgeStyle&quot;:&quot;entityRelationEdgeStyle&quot;,&quot;startArrow&quot;:&quot;none&quot;,&quot;endArrow&quot;:&quot;none&quot;,&quot;segment&quot;:10,&quot;curved&quot;:1,&quot;sourcePerimeterSpacing&quot;:0,&quot;targetPerimeterSpacing&quot;:0};treeFolding=1;treeMoving=1;fontFamily=Comic Sans MS;sketch=1;curveFitting=1;jiggle=2;fillColor=#fff2cc;strokeColor=#d6b656;" parent="q-akzQOQ44o_kOeG1WCX-105" vertex="1">
          <mxGeometry x="200" y="245" width="80" height="30" as="geometry" />
        </mxCell>
        <mxCell id="q-akzQOQ44o_kOeG1WCX-135" value="" style="edgeStyle=entityRelationEdgeStyle;rounded=0;orthogonalLoop=1;jettySize=auto;html=1;startArrow=none;endArrow=none;segment=10;curved=1;sourcePerimeterSpacing=0;targetPerimeterSpacing=0;fontFamily=Comic Sans MS;" parent="q-akzQOQ44o_kOeG1WCX-105" source="q-akzQOQ44o_kOeG1WCX-106" target="q-akzQOQ44o_kOeG1WCX-136" edge="1">
          <mxGeometry relative="1" as="geometry">
            <mxPoint x="420" y="-3862.25" as="sourcePoint" />
          </mxGeometry>
        </mxCell>
        <mxCell id="q-akzQOQ44o_kOeG1WCX-136" value="Content" style="whiteSpace=wrap;html=1;shape=ellipse;perimeter=ellipsePerimeter;newEdgeStyle={&quot;edgeStyle&quot;:&quot;entityRelationEdgeStyle&quot;,&quot;startArrow&quot;:&quot;none&quot;,&quot;endArrow&quot;:&quot;none&quot;,&quot;segment&quot;:10,&quot;curved&quot;:1,&quot;sourcePerimeterSpacing&quot;:0,&quot;targetPerimeterSpacing&quot;:0};treeFolding=1;treeMoving=1;fontFamily=Comic Sans MS;sketch=1;curveFitting=1;jiggle=2;fillColor=#fff2cc;strokeColor=#d6b656;" parent="q-akzQOQ44o_kOeG1WCX-105" vertex="1">
          <mxGeometry x="200" y="680" width="80" height="30" as="geometry" />
        </mxCell>
        <mxCell id="q-akzQOQ44o_kOeG1WCX-137" value="" style="edgeStyle=entityRelationEdgeStyle;rounded=0;orthogonalLoop=1;jettySize=auto;html=1;startArrow=none;endArrow=none;segment=10;curved=1;sourcePerimeterSpacing=0;targetPerimeterSpacing=0;fontFamily=Comic Sans MS;" parent="q-akzQOQ44o_kOeG1WCX-105" source="q-akzQOQ44o_kOeG1WCX-106" target="q-akzQOQ44o_kOeG1WCX-138" edge="1">
          <mxGeometry relative="1" as="geometry">
            <mxPoint x="420" y="-3827.25" as="sourcePoint" />
          </mxGeometry>
        </mxCell>
        <mxCell id="q-akzQOQ44o_kOeG1WCX-138" value="Style" style="whiteSpace=wrap;html=1;shape=ellipse;perimeter=ellipsePerimeter;newEdgeStyle={&quot;edgeStyle&quot;:&quot;entityRelationEdgeStyle&quot;,&quot;startArrow&quot;:&quot;none&quot;,&quot;endArrow&quot;:&quot;none&quot;,&quot;segment&quot;:10,&quot;curved&quot;:1,&quot;sourcePerimeterSpacing&quot;:0,&quot;targetPerimeterSpacing&quot;:0};treeFolding=1;treeMoving=1;fontFamily=Comic Sans MS;sketch=1;curveFitting=1;jiggle=2;fillColor=#fff2cc;strokeColor=#d6b656;" parent="q-akzQOQ44o_kOeG1WCX-105" vertex="1">
          <mxGeometry x="200" y="907.5" width="70" height="30" as="geometry" />
        </mxCell>
        <mxCell id="q-akzQOQ44o_kOeG1WCX-141" value="max pooling, avg pooling" style="whiteSpace=wrap;html=1;shape=partialRectangle;top=0;left=0;bottom=1;right=0;points=[[0,1],[1,1]];fillColor=none;align=center;verticalAlign=bottom;routingCenterY=0.5;snapToPoint=1;recursiveResize=0;autosize=1;treeFolding=1;treeMoving=1;newEdgeStyle={&quot;edgeStyle&quot;:&quot;entityRelationEdgeStyle&quot;,&quot;startArrow&quot;:&quot;none&quot;,&quot;endArrow&quot;:&quot;none&quot;,&quot;segment&quot;:10,&quot;curved&quot;:1,&quot;sourcePerimeterSpacing&quot;:0,&quot;targetPerimeterSpacing&quot;:0};fontFamily=Comic Sans MS;" parent="q-akzQOQ44o_kOeG1WCX-105" vertex="1">
          <mxGeometry x="320" y="855" width="170" height="30" as="geometry" />
        </mxCell>
        <mxCell id="q-akzQOQ44o_kOeG1WCX-142" value="" style="edgeStyle=entityRelationEdgeStyle;startArrow=none;endArrow=none;segment=10;curved=1;sourcePerimeterSpacing=0;targetPerimeterSpacing=0;rounded=0;fontFamily=Comic Sans MS;" parent="q-akzQOQ44o_kOeG1WCX-105" source="q-akzQOQ44o_kOeG1WCX-138" target="q-akzQOQ44o_kOeG1WCX-141" edge="1">
          <mxGeometry x="90" y="-755" width="80" height="20" as="geometry" />
        </mxCell>
        <mxCell id="q-akzQOQ44o_kOeG1WCX-143" value="" style="edgeStyle=entityRelationEdgeStyle;startArrow=none;endArrow=none;segment=10;curved=1;sourcePerimeterSpacing=0;targetPerimeterSpacing=0;rounded=0;fontFamily=Comic Sans MS;" parent="q-akzQOQ44o_kOeG1WCX-105" source="q-akzQOQ44o_kOeG1WCX-141" target="q-akzQOQ44o_kOeG1WCX-144" edge="1">
          <mxGeometry x="90" y="-755" width="80" height="20" as="geometry">
            <mxPoint x="550" y="-3687.25" as="sourcePoint" />
          </mxGeometry>
        </mxCell>
        <mxCell id="q-akzQOQ44o_kOeG1WCX-144" value="DS-Font" style="whiteSpace=wrap;html=1;shape=partialRectangle;top=0;left=0;bottom=1;right=0;points=[[0,1],[1,1]];fillColor=none;align=center;verticalAlign=bottom;routingCenterY=0.5;snapToPoint=1;recursiveResize=0;autosize=1;treeFolding=1;treeMoving=1;newEdgeStyle={&quot;edgeStyle&quot;:&quot;entityRelationEdgeStyle&quot;,&quot;startArrow&quot;:&quot;none&quot;,&quot;endArrow&quot;:&quot;none&quot;,&quot;segment&quot;:10,&quot;curved&quot;:1,&quot;sourcePerimeterSpacing&quot;:0,&quot;targetPerimeterSpacing&quot;:0};fontFamily=Comic Sans MS;" parent="q-akzQOQ44o_kOeG1WCX-105" vertex="1">
          <mxGeometry x="540" y="820" width="90" height="30" as="geometry" />
        </mxCell>
        <mxCell id="q-akzQOQ44o_kOeG1WCX-145" value="" style="edgeStyle=entityRelationEdgeStyle;startArrow=none;endArrow=none;segment=10;curved=1;sourcePerimeterSpacing=0;targetPerimeterSpacing=0;rounded=0;fontFamily=Comic Sans MS;" parent="q-akzQOQ44o_kOeG1WCX-105" source="q-akzQOQ44o_kOeG1WCX-141" target="q-akzQOQ44o_kOeG1WCX-146" edge="1">
          <mxGeometry x="90" y="-755" width="80" height="20" as="geometry">
            <mxPoint x="770" y="-3672.25" as="sourcePoint" />
          </mxGeometry>
        </mxCell>
        <mxCell id="q-akzQOQ44o_kOeG1WCX-146" value="FontDiffuser" style="whiteSpace=wrap;html=1;shape=partialRectangle;top=0;left=0;bottom=1;right=0;points=[[0,1],[1,1]];fillColor=none;align=center;verticalAlign=bottom;routingCenterY=0.5;snapToPoint=1;recursiveResize=0;autosize=1;treeFolding=1;treeMoving=1;newEdgeStyle={&quot;edgeStyle&quot;:&quot;entityRelationEdgeStyle&quot;,&quot;startArrow&quot;:&quot;none&quot;,&quot;endArrow&quot;:&quot;none&quot;,&quot;segment&quot;:10,&quot;curved&quot;:1,&quot;sourcePerimeterSpacing&quot;:0,&quot;targetPerimeterSpacing&quot;:0};fontFamily=Comic Sans MS;" parent="q-akzQOQ44o_kOeG1WCX-105" vertex="1">
          <mxGeometry x="540" y="890" width="110" height="30" as="geometry" />
        </mxCell>
        <mxCell id="q-akzQOQ44o_kOeG1WCX-155" value="content 作为 query, style 作为 key 和 value / AdaXxx-like" style="whiteSpace=wrap;html=1;shape=partialRectangle;top=0;left=0;bottom=1;right=0;points=[[0,1],[1,1]];fillColor=none;align=center;verticalAlign=bottom;routingCenterY=0.5;snapToPoint=1;recursiveResize=0;autosize=1;treeFolding=1;treeMoving=1;newEdgeStyle={&quot;edgeStyle&quot;:&quot;entityRelationEdgeStyle&quot;,&quot;startArrow&quot;:&quot;none&quot;,&quot;endArrow&quot;:&quot;none&quot;,&quot;segment&quot;:10,&quot;curved&quot;:1,&quot;sourcePerimeterSpacing&quot;:0,&quot;targetPerimeterSpacing&quot;:0};fontFamily=Comic Sans MS;" parent="q-akzQOQ44o_kOeG1WCX-105" vertex="1">
          <mxGeometry x="330" y="20" width="360" height="30" as="geometry" />
        </mxCell>
        <mxCell id="q-akzQOQ44o_kOeG1WCX-156" value="" style="edgeStyle=entityRelationEdgeStyle;startArrow=none;endArrow=none;segment=10;curved=1;sourcePerimeterSpacing=0;targetPerimeterSpacing=0;rounded=0;fontFamily=Comic Sans MS;" parent="q-akzQOQ44o_kOeG1WCX-105" source="q-akzQOQ44o_kOeG1WCX-134" target="q-akzQOQ44o_kOeG1WCX-155" edge="1">
          <mxGeometry x="90" y="-1015" width="80" height="20" as="geometry" />
        </mxCell>
        <mxCell id="q-akzQOQ44o_kOeG1WCX-157" value="" style="edgeStyle=entityRelationEdgeStyle;startArrow=none;endArrow=none;segment=10;curved=1;sourcePerimeterSpacing=0;targetPerimeterSpacing=0;rounded=0;fontFamily=Comic Sans MS;" parent="q-akzQOQ44o_kOeG1WCX-105" source="q-akzQOQ44o_kOeG1WCX-155" target="q-akzQOQ44o_kOeG1WCX-158" edge="1">
          <mxGeometry x="90" y="-1015" width="80" height="20" as="geometry">
            <mxPoint x="550" y="-3707.25" as="sourcePoint" />
          </mxGeometry>
        </mxCell>
        <mxCell id="q-akzQOQ44o_kOeG1WCX-158" value="许多方法都有用到" style="whiteSpace=wrap;html=1;shape=partialRectangle;top=0;left=0;bottom=1;right=0;points=[[0,1],[1,1]];fillColor=none;align=center;verticalAlign=bottom;routingCenterY=0.5;snapToPoint=1;recursiveResize=0;autosize=1;treeFolding=1;treeMoving=1;newEdgeStyle={&quot;edgeStyle&quot;:&quot;entityRelationEdgeStyle&quot;,&quot;startArrow&quot;:&quot;none&quot;,&quot;endArrow&quot;:&quot;none&quot;,&quot;segment&quot;:10,&quot;curved&quot;:1,&quot;sourcePerimeterSpacing&quot;:0,&quot;targetPerimeterSpacing&quot;:0};fontFamily=Comic Sans MS;" parent="q-akzQOQ44o_kOeG1WCX-105" vertex="1">
          <mxGeometry x="740" y="20" width="140" height="30" as="geometry" />
        </mxCell>
        <mxCell id="q-akzQOQ44o_kOeG1WCX-159" value="" style="edgeStyle=entityRelationEdgeStyle;startArrow=none;endArrow=none;segment=10;curved=1;sourcePerimeterSpacing=0;targetPerimeterSpacing=0;rounded=0;fontFamily=Comic Sans MS;" parent="q-akzQOQ44o_kOeG1WCX-105" source="q-akzQOQ44o_kOeG1WCX-138" target="q-akzQOQ44o_kOeG1WCX-160" edge="1">
          <mxGeometry x="90" y="-755" width="80" height="20" as="geometry">
            <mxPoint x="550" y="-3567.25" as="sourcePoint" />
          </mxGeometry>
        </mxCell>
        <mxCell id="q-akzQOQ44o_kOeG1WCX-160" value="cross attn / IP-Adapter like" style="whiteSpace=wrap;html=1;shape=partialRectangle;top=0;left=0;bottom=1;right=0;points=[[0,1],[1,1]];fillColor=none;align=center;verticalAlign=bottom;routingCenterY=0.5;snapToPoint=1;recursiveResize=0;autosize=1;treeFolding=1;treeMoving=1;newEdgeStyle={&quot;edgeStyle&quot;:&quot;entityRelationEdgeStyle&quot;,&quot;startArrow&quot;:&quot;none&quot;,&quot;endArrow&quot;:&quot;none&quot;,&quot;segment&quot;:10,&quot;curved&quot;:1,&quot;sourcePerimeterSpacing&quot;:0,&quot;targetPerimeterSpacing&quot;:0};fontFamily=Comic Sans MS;" parent="q-akzQOQ44o_kOeG1WCX-105" vertex="1">
          <mxGeometry x="320" y="960" width="200" height="30" as="geometry" />
        </mxCell>
        <mxCell id="q-akzQOQ44o_kOeG1WCX-165" value="" style="edgeStyle=entityRelationEdgeStyle;startArrow=none;endArrow=none;segment=10;curved=1;sourcePerimeterSpacing=0;targetPerimeterSpacing=0;rounded=0;fontFamily=Comic Sans MS;" parent="q-akzQOQ44o_kOeG1WCX-105" source="q-akzQOQ44o_kOeG1WCX-134" target="q-akzQOQ44o_kOeG1WCX-166" edge="1">
          <mxGeometry x="90" y="-1015" width="80" height="20" as="geometry">
            <mxPoint x="550" y="-3728.25" as="sourcePoint" />
          </mxGeometry>
        </mxCell>
        <mxCell id="q-akzQOQ44o_kOeG1WCX-166" value="channel attn" style="whiteSpace=wrap;html=1;shape=partialRectangle;top=0;left=0;bottom=1;right=0;points=[[0,1],[1,1]];fillColor=none;align=center;verticalAlign=bottom;routingCenterY=0.5;snapToPoint=1;recursiveResize=0;autosize=1;treeFolding=1;treeMoving=1;newEdgeStyle={&quot;edgeStyle&quot;:&quot;entityRelationEdgeStyle&quot;,&quot;startArrow&quot;:&quot;none&quot;,&quot;endArrow&quot;:&quot;none&quot;,&quot;segment&quot;:10,&quot;curved&quot;:1,&quot;sourcePerimeterSpacing&quot;:0,&quot;targetPerimeterSpacing&quot;:0};fontFamily=Comic Sans MS;" parent="q-akzQOQ44o_kOeG1WCX-105" vertex="1">
          <mxGeometry x="330" y="160" width="110" height="30" as="geometry" />
        </mxCell>
        <mxCell id="q-akzQOQ44o_kOeG1WCX-193" value="" style="edgeStyle=entityRelationEdgeStyle;startArrow=none;endArrow=none;segment=10;curved=1;sourcePerimeterSpacing=0;targetPerimeterSpacing=0;rounded=0;fontFamily=Comic Sans MS;" parent="q-akzQOQ44o_kOeG1WCX-105" source="q-akzQOQ44o_kOeG1WCX-134" target="q-akzQOQ44o_kOeG1WCX-194" edge="1">
          <mxGeometry x="90" y="-1015" width="80" height="20" as="geometry">
            <mxPoint x="570" y="-3086" as="sourcePoint" />
          </mxGeometry>
        </mxCell>
        <mxCell id="q-akzQOQ44o_kOeG1WCX-194" value="embedding 上相加融合" style="whiteSpace=wrap;html=1;shape=partialRectangle;top=0;left=0;bottom=1;right=0;points=[[0,1],[1,1]];fillColor=none;align=center;verticalAlign=bottom;routingCenterY=0.5;snapToPoint=1;recursiveResize=0;autosize=1;treeFolding=1;treeMoving=1;newEdgeStyle={&quot;edgeStyle&quot;:&quot;entityRelationEdgeStyle&quot;,&quot;startArrow&quot;:&quot;none&quot;,&quot;endArrow&quot;:&quot;none&quot;,&quot;segment&quot;:10,&quot;curved&quot;:1,&quot;sourcePerimeterSpacing&quot;:0,&quot;targetPerimeterSpacing&quot;:0};fontFamily=Comic Sans MS;" parent="q-akzQOQ44o_kOeG1WCX-105" vertex="1" collapsed="1">
          <mxGeometry x="330" y="345" width="160" height="30" as="geometry" />
        </mxCell>
        <mxCell id="q-akzQOQ44o_kOeG1WCX-197" value="" style="edgeStyle=entityRelationEdgeStyle;startArrow=none;endArrow=none;segment=10;curved=1;sourcePerimeterSpacing=0;targetPerimeterSpacing=0;rounded=0;fontFamily=Comic Sans MS;" parent="q-akzQOQ44o_kOeG1WCX-105" source="q-akzQOQ44o_kOeG1WCX-166" target="q-akzQOQ44o_kOeG1WCX-198" edge="1">
          <mxGeometry x="90" y="-1015" width="80" height="20" as="geometry">
            <mxPoint x="570" y="-2803.25" as="sourcePoint" />
          </mxGeometry>
        </mxCell>
        <mxCell id="q-akzQOQ44o_kOeG1WCX-198" value="Attribute2Font" style="whiteSpace=wrap;html=1;shape=partialRectangle;top=0;left=0;bottom=1;right=0;points=[[0,1],[1,1]];fillColor=none;align=center;verticalAlign=bottom;routingCenterY=0.5;snapToPoint=1;recursiveResize=0;autosize=1;treeFolding=1;treeMoving=1;newEdgeStyle={&quot;edgeStyle&quot;:&quot;entityRelationEdgeStyle&quot;,&quot;startArrow&quot;:&quot;none&quot;,&quot;endArrow&quot;:&quot;none&quot;,&quot;segment&quot;:10,&quot;curved&quot;:1,&quot;sourcePerimeterSpacing&quot;:0,&quot;targetPerimeterSpacing&quot;:0};fontFamily=Comic Sans MS;" parent="q-akzQOQ44o_kOeG1WCX-105" vertex="1">
          <mxGeometry x="490" y="90" width="130" height="30" as="geometry" />
        </mxCell>
        <mxCell id="q-akzQOQ44o_kOeG1WCX-199" value="" style="edgeStyle=entityRelationEdgeStyle;startArrow=none;endArrow=none;segment=10;curved=1;sourcePerimeterSpacing=0;targetPerimeterSpacing=0;rounded=0;fontFamily=Comic Sans MS;" parent="q-akzQOQ44o_kOeG1WCX-105" source="q-akzQOQ44o_kOeG1WCX-166" target="q-akzQOQ44o_kOeG1WCX-200" edge="1">
          <mxGeometry x="90" y="-1015" width="80" height="20" as="geometry">
            <mxPoint x="730" y="-2788.25" as="sourcePoint" />
          </mxGeometry>
        </mxCell>
        <mxCell id="q-akzQOQ44o_kOeG1WCX-200" value="FontDiffuser" style="whiteSpace=wrap;html=1;shape=partialRectangle;top=0;left=0;bottom=1;right=0;points=[[0,1],[1,1]];fillColor=none;align=center;verticalAlign=bottom;routingCenterY=0.5;snapToPoint=1;recursiveResize=0;autosize=1;treeFolding=1;treeMoving=1;newEdgeStyle={&quot;edgeStyle&quot;:&quot;entityRelationEdgeStyle&quot;,&quot;startArrow&quot;:&quot;none&quot;,&quot;endArrow&quot;:&quot;none&quot;,&quot;segment&quot;:10,&quot;curved&quot;:1,&quot;sourcePerimeterSpacing&quot;:0,&quot;targetPerimeterSpacing&quot;:0};fontFamily=Comic Sans MS;" parent="q-akzQOQ44o_kOeG1WCX-105" vertex="1">
          <mxGeometry x="490" y="160" width="110" height="30" as="geometry" />
        </mxCell>
        <mxCell id="q-akzQOQ44o_kOeG1WCX-201" value="" style="edgeStyle=entityRelationEdgeStyle;startArrow=none;endArrow=none;segment=10;curved=1;sourcePerimeterSpacing=0;targetPerimeterSpacing=0;rounded=0;fontFamily=Comic Sans MS;" parent="q-akzQOQ44o_kOeG1WCX-105" source="q-akzQOQ44o_kOeG1WCX-166" target="q-akzQOQ44o_kOeG1WCX-202" edge="1">
          <mxGeometry x="90" y="-1015" width="80" height="20" as="geometry">
            <mxPoint x="730" y="-2517" as="sourcePoint" />
          </mxGeometry>
        </mxCell>
        <mxCell id="q-akzQOQ44o_kOeG1WCX-202" value="MX-Font ++" style="whiteSpace=wrap;html=1;shape=partialRectangle;top=0;left=0;bottom=1;right=0;points=[[0,1],[1,1]];fillColor=none;align=center;verticalAlign=bottom;routingCenterY=0.5;snapToPoint=1;recursiveResize=0;autosize=1;treeFolding=1;treeMoving=1;newEdgeStyle={&quot;edgeStyle&quot;:&quot;entityRelationEdgeStyle&quot;,&quot;startArrow&quot;:&quot;none&quot;,&quot;endArrow&quot;:&quot;none&quot;,&quot;segment&quot;:10,&quot;curved&quot;:1,&quot;sourcePerimeterSpacing&quot;:0,&quot;targetPerimeterSpacing&quot;:0};fontFamily=Comic Sans MS;" parent="q-akzQOQ44o_kOeG1WCX-105" vertex="1">
          <mxGeometry x="490" y="230" width="110" height="30" as="geometry" />
        </mxCell>
        <mxCell id="q-akzQOQ44o_kOeG1WCX-205" value="skip connection + DCN" style="whiteSpace=wrap;html=1;shape=partialRectangle;top=0;left=0;bottom=1;right=0;points=[[0,1],[1,1]];fillColor=none;align=center;verticalAlign=bottom;routingCenterY=0.5;snapToPoint=1;recursiveResize=0;autosize=1;treeFolding=1;treeMoving=1;newEdgeStyle={&quot;edgeStyle&quot;:&quot;entityRelationEdgeStyle&quot;,&quot;startArrow&quot;:&quot;none&quot;,&quot;endArrow&quot;:&quot;none&quot;,&quot;segment&quot;:10,&quot;curved&quot;:1,&quot;sourcePerimeterSpacing&quot;:0,&quot;targetPerimeterSpacing&quot;:0};fontFamily=Comic Sans MS;" parent="q-akzQOQ44o_kOeG1WCX-105" vertex="1">
          <mxGeometry x="330" y="610" width="160" height="30" as="geometry" />
        </mxCell>
        <mxCell id="q-akzQOQ44o_kOeG1WCX-206" value="" style="edgeStyle=entityRelationEdgeStyle;startArrow=none;endArrow=none;segment=10;curved=1;sourcePerimeterSpacing=0;targetPerimeterSpacing=0;rounded=0;fontFamily=Comic Sans MS;" parent="q-akzQOQ44o_kOeG1WCX-105" source="q-akzQOQ44o_kOeG1WCX-136" target="q-akzQOQ44o_kOeG1WCX-205" edge="1">
          <mxGeometry x="70" y="-713" width="80" height="20" as="geometry" />
        </mxCell>
        <mxCell id="q-akzQOQ44o_kOeG1WCX-207" value="" style="edgeStyle=entityRelationEdgeStyle;startArrow=none;endArrow=none;segment=10;curved=1;sourcePerimeterSpacing=0;targetPerimeterSpacing=0;rounded=0;fontFamily=Comic Sans MS;" parent="q-akzQOQ44o_kOeG1WCX-105" source="q-akzQOQ44o_kOeG1WCX-205" target="q-akzQOQ44o_kOeG1WCX-208" edge="1">
          <mxGeometry x="70" y="-713" width="80" height="20" as="geometry">
            <mxPoint x="570" y="-1977.25" as="sourcePoint" />
          </mxGeometry>
        </mxCell>
        <mxCell id="q-akzQOQ44o_kOeG1WCX-208" value="DG-Font，DG-Font++" style="whiteSpace=wrap;html=1;shape=partialRectangle;top=0;left=0;bottom=1;right=0;points=[[0,1],[1,1]];fillColor=none;align=center;verticalAlign=bottom;routingCenterY=0.5;snapToPoint=1;recursiveResize=0;autosize=1;treeFolding=1;treeMoving=1;newEdgeStyle={&quot;edgeStyle&quot;:&quot;entityRelationEdgeStyle&quot;,&quot;startArrow&quot;:&quot;none&quot;,&quot;endArrow&quot;:&quot;none&quot;,&quot;segment&quot;:10,&quot;curved&quot;:1,&quot;sourcePerimeterSpacing&quot;:0,&quot;targetPerimeterSpacing&quot;:0};fontFamily=Comic Sans MS;" parent="q-akzQOQ44o_kOeG1WCX-105" vertex="1">
          <mxGeometry x="540" y="540" width="160" height="30" as="geometry" />
        </mxCell>
        <mxCell id="q-akzQOQ44o_kOeG1WCX-209" value="" style="edgeStyle=entityRelationEdgeStyle;startArrow=none;endArrow=none;segment=10;curved=1;sourcePerimeterSpacing=0;targetPerimeterSpacing=0;rounded=0;fontFamily=Comic Sans MS;" parent="q-akzQOQ44o_kOeG1WCX-105" source="q-akzQOQ44o_kOeG1WCX-205" target="q-akzQOQ44o_kOeG1WCX-210" edge="1">
          <mxGeometry x="70" y="-713" width="80" height="20" as="geometry">
            <mxPoint x="780" y="-1965.75" as="sourcePoint" />
          </mxGeometry>
        </mxCell>
        <mxCell id="q-akzQOQ44o_kOeG1WCX-210" value="CF-Font" style="whiteSpace=wrap;html=1;shape=partialRectangle;top=0;left=0;bottom=1;right=0;points=[[0,1],[1,1]];fillColor=none;align=center;verticalAlign=bottom;routingCenterY=0.5;snapToPoint=1;recursiveResize=0;autosize=1;treeFolding=1;treeMoving=1;newEdgeStyle={&quot;edgeStyle&quot;:&quot;entityRelationEdgeStyle&quot;,&quot;startArrow&quot;:&quot;none&quot;,&quot;endArrow&quot;:&quot;none&quot;,&quot;segment&quot;:10,&quot;curved&quot;:1,&quot;sourcePerimeterSpacing&quot;:0,&quot;targetPerimeterSpacing&quot;:0};fontFamily=Comic Sans MS;" parent="q-akzQOQ44o_kOeG1WCX-105" vertex="1">
          <mxGeometry x="540" y="610" width="90" height="30" as="geometry" />
        </mxCell>
        <mxCell id="q-akzQOQ44o_kOeG1WCX-211" value="" style="edgeStyle=entityRelationEdgeStyle;startArrow=none;endArrow=none;segment=10;curved=1;sourcePerimeterSpacing=0;targetPerimeterSpacing=0;rounded=0;fontFamily=Comic Sans MS;" parent="q-akzQOQ44o_kOeG1WCX-105" source="q-akzQOQ44o_kOeG1WCX-136" target="q-akzQOQ44o_kOeG1WCX-212" edge="1">
          <mxGeometry x="70" y="-713" width="80" height="20" as="geometry">
            <mxPoint x="570" y="-1629" as="sourcePoint" />
          </mxGeometry>
        </mxCell>
        <mxCell id="q-akzQOQ44o_kOeG1WCX-212" value="channel concat" style="whiteSpace=wrap;html=1;shape=partialRectangle;top=0;left=0;bottom=1;right=0;points=[[0,1],[1,1]];fillColor=none;align=center;verticalAlign=bottom;routingCenterY=0.5;snapToPoint=1;recursiveResize=0;autosize=1;treeFolding=1;treeMoving=1;newEdgeStyle={&quot;edgeStyle&quot;:&quot;entityRelationEdgeStyle&quot;,&quot;startArrow&quot;:&quot;none&quot;,&quot;endArrow&quot;:&quot;none&quot;,&quot;segment&quot;:10,&quot;curved&quot;:1,&quot;sourcePerimeterSpacing&quot;:0,&quot;targetPerimeterSpacing&quot;:0};fontFamily=Comic Sans MS;" parent="q-akzQOQ44o_kOeG1WCX-105" vertex="1">
          <mxGeometry x="330" y="750" width="120" height="30" as="geometry" />
        </mxCell>
        <mxCell id="q-akzQOQ44o_kOeG1WCX-213" value="" style="edgeStyle=entityRelationEdgeStyle;startArrow=none;endArrow=none;segment=10;curved=1;sourcePerimeterSpacing=0;targetPerimeterSpacing=0;rounded=0;fontFamily=Comic Sans MS;" parent="q-akzQOQ44o_kOeG1WCX-105" source="q-akzQOQ44o_kOeG1WCX-205" target="q-akzQOQ44o_kOeG1WCX-214" edge="1">
          <mxGeometry x="70" y="-713" width="80" height="20" as="geometry">
            <mxPoint x="780" y="-1230.75" as="sourcePoint" />
          </mxGeometry>
        </mxCell>
        <mxCell id="q-akzQOQ44o_kOeG1WCX-214" value="FontDiffuser" style="whiteSpace=wrap;html=1;shape=partialRectangle;top=0;left=0;bottom=1;right=0;points=[[0,1],[1,1]];fillColor=none;align=center;verticalAlign=bottom;routingCenterY=0.5;snapToPoint=1;recursiveResize=0;autosize=1;treeFolding=1;treeMoving=1;newEdgeStyle={&quot;edgeStyle&quot;:&quot;entityRelationEdgeStyle&quot;,&quot;startArrow&quot;:&quot;none&quot;,&quot;endArrow&quot;:&quot;none&quot;,&quot;segment&quot;:10,&quot;curved&quot;:1,&quot;sourcePerimeterSpacing&quot;:0,&quot;targetPerimeterSpacing&quot;:0};fontFamily=Comic Sans MS;" parent="q-akzQOQ44o_kOeG1WCX-105" vertex="1">
          <mxGeometry x="540" y="680" width="110" height="30" as="geometry" />
        </mxCell>
        <mxCell id="q-akzQOQ44o_kOeG1WCX-215" value="" style="edgeStyle=entityRelationEdgeStyle;startArrow=none;endArrow=none;segment=10;curved=1;sourcePerimeterSpacing=0;targetPerimeterSpacing=0;rounded=0;fontFamily=Comic Sans MS;" parent="q-akzQOQ44o_kOeG1WCX-105" source="q-akzQOQ44o_kOeG1WCX-212" target="q-akzQOQ44o_kOeG1WCX-216" edge="1">
          <mxGeometry x="70" y="-713" width="80" height="20" as="geometry">
            <mxPoint x="570" y="-827.5" as="sourcePoint" />
          </mxGeometry>
        </mxCell>
        <mxCell id="q-akzQOQ44o_kOeG1WCX-216" value="SGCE-Font" style="whiteSpace=wrap;html=1;shape=partialRectangle;top=0;left=0;bottom=1;right=0;points=[[0,1],[1,1]];fillColor=none;align=center;verticalAlign=bottom;routingCenterY=0.5;snapToPoint=1;recursiveResize=0;autosize=1;treeFolding=1;treeMoving=1;newEdgeStyle={&quot;edgeStyle&quot;:&quot;entityRelationEdgeStyle&quot;,&quot;startArrow&quot;:&quot;none&quot;,&quot;endArrow&quot;:&quot;none&quot;,&quot;segment&quot;:10,&quot;curved&quot;:1,&quot;sourcePerimeterSpacing&quot;:0,&quot;targetPerimeterSpacing&quot;:0};fontFamily=Comic Sans MS;" parent="q-akzQOQ44o_kOeG1WCX-105" vertex="1">
          <mxGeometry x="500" y="750" width="100" height="30" as="geometry" />
        </mxCell>
        <mxCell id="q-akzQOQ44o_kOeG1WCX-217" value="" style="edgeStyle=entityRelationEdgeStyle;startArrow=none;endArrow=none;segment=10;curved=1;sourcePerimeterSpacing=0;targetPerimeterSpacing=0;rounded=0;fontFamily=Comic Sans MS;" parent="q-akzQOQ44o_kOeG1WCX-105" source="q-akzQOQ44o_kOeG1WCX-194" target="q-akzQOQ44o_kOeG1WCX-218" edge="1">
          <mxGeometry x="90" y="-1015" width="80" height="20" as="geometry">
            <mxPoint x="570" y="-741.75" as="sourcePoint" />
          </mxGeometry>
        </mxCell>
        <mxCell id="q-akzQOQ44o_kOeG1WCX-218" value="&lt;div&gt;Diff-Font&lt;/div&gt;content id + style id + stroke encoding" style="whiteSpace=wrap;html=1;shape=partialRectangle;top=0;left=0;bottom=1;right=0;points=[[0,1],[1,1]];fillColor=none;align=center;verticalAlign=bottom;routingCenterY=0.5;snapToPoint=1;recursiveResize=0;autosize=1;treeFolding=1;treeMoving=1;newEdgeStyle={&quot;edgeStyle&quot;:&quot;entityRelationEdgeStyle&quot;,&quot;startArrow&quot;:&quot;none&quot;,&quot;endArrow&quot;:&quot;none&quot;,&quot;segment&quot;:10,&quot;curved&quot;:1,&quot;sourcePerimeterSpacing&quot;:0,&quot;targetPerimeterSpacing&quot;:0};fontFamily=Comic Sans MS;" parent="q-akzQOQ44o_kOeG1WCX-105" vertex="1" collapsed="1">
          <mxGeometry x="540" y="300" width="250" height="40" as="geometry" />
        </mxCell>
        <mxCell id="q-akzQOQ44o_kOeG1WCX-219" value="" style="edgeStyle=entityRelationEdgeStyle;startArrow=none;endArrow=none;segment=10;curved=1;sourcePerimeterSpacing=0;targetPerimeterSpacing=0;rounded=0;fontFamily=Comic Sans MS;" parent="q-akzQOQ44o_kOeG1WCX-105" source="q-akzQOQ44o_kOeG1WCX-194" target="q-akzQOQ44o_kOeG1WCX-220" edge="1">
          <mxGeometry x="90" y="-1015" width="80" height="20" as="geometry">
            <mxPoint x="780" y="-595" as="sourcePoint" />
          </mxGeometry>
        </mxCell>
        <mxCell id="q-akzQOQ44o_kOeG1WCX-220" value="FontTransformer&lt;div&gt;patchify + content id + style id + wubi 的 encoding&lt;/div&gt;" style="whiteSpace=wrap;html=1;shape=partialRectangle;top=0;left=0;bottom=1;right=0;points=[[0,1],[1,1]];fillColor=none;align=center;verticalAlign=bottom;routingCenterY=0.5;snapToPoint=1;recursiveResize=0;autosize=1;treeFolding=1;treeMoving=1;newEdgeStyle={&quot;edgeStyle&quot;:&quot;entityRelationEdgeStyle&quot;,&quot;startArrow&quot;:&quot;none&quot;,&quot;endArrow&quot;:&quot;none&quot;,&quot;segment&quot;:10,&quot;curved&quot;:1,&quot;sourcePerimeterSpacing&quot;:0,&quot;targetPerimeterSpacing&quot;:0};fontFamily=Comic Sans MS;" parent="q-akzQOQ44o_kOeG1WCX-105" vertex="1" collapsed="1">
          <mxGeometry x="540" y="380" width="320" height="40" as="geometry" />
        </mxCell>
        <mxCell id="q-akzQOQ44o_kOeG1WCX-241" value="" style="edgeStyle=entityRelationEdgeStyle;startArrow=none;endArrow=none;segment=10;curved=1;sourcePerimeterSpacing=0;targetPerimeterSpacing=0;rounded=0;fontFamily=Comic Sans MS;" parent="q-akzQOQ44o_kOeG1WCX-105" source="q-akzQOQ44o_kOeG1WCX-134" target="q-akzQOQ44o_kOeG1WCX-242" edge="1">
          <mxGeometry x="90" y="-1015" width="80" height="20" as="geometry">
            <mxPoint x="570" y="238" as="sourcePoint" />
          </mxGeometry>
        </mxCell>
        <mxCell id="q-akzQOQ44o_kOeG1WCX-242" value="&lt;div&gt;MSD-Font&lt;/div&gt;在扩散过程中，将 content 生成和 style 迁移分为独立的扩散网络" style="whiteSpace=wrap;html=1;shape=partialRectangle;top=0;left=0;bottom=1;right=0;points=[[0,1],[1,1]];fillColor=none;align=center;verticalAlign=bottom;routingCenterY=0.5;snapToPoint=1;recursiveResize=0;autosize=1;treeFolding=1;treeMoving=1;newEdgeStyle={&quot;edgeStyle&quot;:&quot;entityRelationEdgeStyle&quot;,&quot;startArrow&quot;:&quot;none&quot;,&quot;endArrow&quot;:&quot;none&quot;,&quot;segment&quot;:10,&quot;curved&quot;:1,&quot;sourcePerimeterSpacing&quot;:0,&quot;targetPerimeterSpacing&quot;:0};fontFamily=Comic Sans MS;" parent="q-akzQOQ44o_kOeG1WCX-105" vertex="1" collapsed="1">
          <mxGeometry x="330" y="460" width="390" height="40" as="geometry" />
        </mxCell>
        <mxCell id="q-akzQOQ44o_kOeG1WCX-378" value="" style="edgeStyle=entityRelationEdgeStyle;startArrow=none;endArrow=none;segment=10;curved=1;sourcePerimeterSpacing=0;targetPerimeterSpacing=0;rounded=0;fontFamily=Comic Sans MS;" parent="q-akzQOQ44o_kOeG1WCX-105" source="q-akzQOQ44o_kOeG1WCX-160" target="q-akzQOQ44o_kOeG1WCX-379" edge="1">
          <mxGeometry x="90" y="-755" width="80" height="20" as="geometry">
            <mxPoint x="600" y="2023" as="sourcePoint" />
          </mxGeometry>
        </mxCell>
        <mxCell id="q-akzQOQ44o_kOeG1WCX-379" value="很多都有使用" style="whiteSpace=wrap;html=1;shape=partialRectangle;top=0;left=0;bottom=1;right=0;points=[[0,1],[1,1]];fillColor=none;align=center;verticalAlign=bottom;routingCenterY=0.5;snapToPoint=1;recursiveResize=0;autosize=1;treeFolding=1;treeMoving=1;newEdgeStyle={&quot;edgeStyle&quot;:&quot;entityRelationEdgeStyle&quot;,&quot;startArrow&quot;:&quot;none&quot;,&quot;endArrow&quot;:&quot;none&quot;,&quot;segment&quot;:10,&quot;curved&quot;:1,&quot;sourcePerimeterSpacing&quot;:0,&quot;targetPerimeterSpacing&quot;:0};fontFamily=Comic Sans MS;" parent="q-akzQOQ44o_kOeG1WCX-105" vertex="1">
          <mxGeometry x="570" y="960" width="110" height="30" as="geometry" />
        </mxCell>
        <mxCell id="q-akzQOQ44o_kOeG1WCX-169" value="5. Distanglement" style="swimlane;startSize=20;horizontal=0;childLayout=treeLayout;horizontalTree=1;sortEdges=1;resizable=0;containerType=tree;fontSize=12;fontFamily=Comic Sans MS;sketch=1;curveFitting=1;jiggle=2;" parent="1" vertex="1">
          <mxGeometry x="1456" y="1300" width="710" height="320" as="geometry" />
        </mxCell>
        <mxCell id="q-akzQOQ44o_kOeG1WCX-170" value="Distanglement" style="whiteSpace=wrap;html=1;shape=ellipse;perimeter=ellipsePerimeter;newEdgeStyle={&quot;edgeStyle&quot;:&quot;entityRelationEdgeStyle&quot;,&quot;startArrow&quot;:&quot;none&quot;,&quot;endArrow&quot;:&quot;none&quot;,&quot;segment&quot;:10,&quot;curved&quot;:1,&quot;sourcePerimeterSpacing&quot;:0,&quot;targetPerimeterSpacing&quot;:0};treeFolding=1;treeMoving=1;fontFamily=Comic Sans MS;sketch=1;curveFitting=1;jiggle=2;fillColor=#f8cecc;strokeColor=#b85450;" parent="q-akzQOQ44o_kOeG1WCX-169" vertex="1">
          <mxGeometry x="40" y="145" width="120" height="30" as="geometry" />
        </mxCell>
        <mxCell id="q-akzQOQ44o_kOeG1WCX-181" value="&lt;div&gt;&lt;span style=&quot;&quot;&gt;FontTransformer&lt;/span&gt;&lt;span style=&quot;&quot;&gt;&lt;/span&gt;&lt;/div&gt;&lt;span style=&quot;&quot;&gt;串行 + 并行 transformer&lt;/span&gt;" style="whiteSpace=wrap;html=1;shape=partialRectangle;top=0;left=0;bottom=1;right=0;points=[[0,1],[1,1]];fillColor=none;align=center;verticalAlign=bottom;routingCenterY=0.5;snapToPoint=1;recursiveResize=0;autosize=1;treeFolding=1;treeMoving=1;newEdgeStyle={&quot;edgeStyle&quot;:&quot;entityRelationEdgeStyle&quot;,&quot;startArrow&quot;:&quot;none&quot;,&quot;endArrow&quot;:&quot;none&quot;,&quot;segment&quot;:10,&quot;curved&quot;:1,&quot;sourcePerimeterSpacing&quot;:0,&quot;targetPerimeterSpacing&quot;:0};fontFamily=Comic Sans MS;" parent="q-akzQOQ44o_kOeG1WCX-169" vertex="1">
          <mxGeometry x="210" y="20" width="170" height="40" as="geometry" />
        </mxCell>
        <mxCell id="q-akzQOQ44o_kOeG1WCX-182" value="" style="edgeStyle=entityRelationEdgeStyle;startArrow=none;endArrow=none;segment=10;curved=1;sourcePerimeterSpacing=0;targetPerimeterSpacing=0;rounded=0;fontFamily=Comic Sans MS;" parent="q-akzQOQ44o_kOeG1WCX-169" source="q-akzQOQ44o_kOeG1WCX-170" target="q-akzQOQ44o_kOeG1WCX-181" edge="1">
          <mxGeometry x="-1060" y="-820" width="80" height="20" as="geometry" />
        </mxCell>
        <mxCell id="q-akzQOQ44o_kOeG1WCX-364" value="" style="edgeStyle=entityRelationEdgeStyle;startArrow=none;endArrow=none;segment=10;curved=1;sourcePerimeterSpacing=0;targetPerimeterSpacing=0;rounded=0;fontFamily=Comic Sans MS;" parent="q-akzQOQ44o_kOeG1WCX-169" source="q-akzQOQ44o_kOeG1WCX-170" target="q-akzQOQ44o_kOeG1WCX-365" edge="1">
          <mxGeometry x="-1060" y="-820" width="80" height="20" as="geometry">
            <mxPoint x="1480" y="1055" as="sourcePoint" />
          </mxGeometry>
        </mxCell>
        <mxCell id="q-akzQOQ44o_kOeG1WCX-365" value="&lt;div&gt;MX-Font&lt;/div&gt;HSIC 算法监督独立性" style="whiteSpace=wrap;html=1;shape=partialRectangle;top=0;left=0;bottom=1;right=0;points=[[0,1],[1,1]];fillColor=none;align=center;verticalAlign=bottom;routingCenterY=0.5;snapToPoint=1;recursiveResize=0;autosize=1;treeFolding=1;treeMoving=1;newEdgeStyle={&quot;edgeStyle&quot;:&quot;entityRelationEdgeStyle&quot;,&quot;startArrow&quot;:&quot;none&quot;,&quot;endArrow&quot;:&quot;none&quot;,&quot;segment&quot;:10,&quot;curved&quot;:1,&quot;sourcePerimeterSpacing&quot;:0,&quot;targetPerimeterSpacing&quot;:0};fontFamily=Comic Sans MS;" parent="q-akzQOQ44o_kOeG1WCX-169" vertex="1">
          <mxGeometry x="210" y="100" width="160" height="40" as="geometry" />
        </mxCell>
        <mxCell id="q-akzQOQ44o_kOeG1WCX-366" value="" style="edgeStyle=entityRelationEdgeStyle;startArrow=none;endArrow=none;segment=10;curved=1;sourcePerimeterSpacing=0;targetPerimeterSpacing=0;rounded=0;fontFamily=Comic Sans MS;" parent="q-akzQOQ44o_kOeG1WCX-169" source="q-akzQOQ44o_kOeG1WCX-170" target="q-akzQOQ44o_kOeG1WCX-367" edge="1">
          <mxGeometry x="-1060" y="-820" width="80" height="20" as="geometry">
            <mxPoint x="1480" y="1100" as="sourcePoint" />
          </mxGeometry>
        </mxCell>
        <mxCell id="q-akzQOQ44o_kOeG1WCX-367" value="&lt;div&gt;MX-Font&lt;/div&gt;content feature 通过 style classifier 的 ce loss 为均匀分布；style feature 亦然" style="whiteSpace=wrap;html=1;shape=partialRectangle;top=0;left=0;bottom=1;right=0;points=[[0,1],[1,1]];fillColor=none;align=center;verticalAlign=bottom;routingCenterY=0.5;snapToPoint=1;recursiveResize=0;autosize=1;treeFolding=1;treeMoving=1;newEdgeStyle={&quot;edgeStyle&quot;:&quot;entityRelationEdgeStyle&quot;,&quot;startArrow&quot;:&quot;none&quot;,&quot;endArrow&quot;:&quot;none&quot;,&quot;segment&quot;:10,&quot;curved&quot;:1,&quot;sourcePerimeterSpacing&quot;:0,&quot;targetPerimeterSpacing&quot;:0};fontFamily=Comic Sans MS;" parent="q-akzQOQ44o_kOeG1WCX-169" vertex="1">
          <mxGeometry x="210" y="180" width="480" height="40" as="geometry" />
        </mxCell>
        <mxCell id="q-akzQOQ44o_kOeG1WCX-368" value="" style="edgeStyle=entityRelationEdgeStyle;startArrow=none;endArrow=none;segment=10;curved=1;sourcePerimeterSpacing=0;targetPerimeterSpacing=0;rounded=0;fontFamily=Comic Sans MS;" parent="q-akzQOQ44o_kOeG1WCX-169" source="q-akzQOQ44o_kOeG1WCX-170" target="q-akzQOQ44o_kOeG1WCX-369" edge="1">
          <mxGeometry x="-1060" y="-820" width="80" height="20" as="geometry">
            <mxPoint x="1480" y="1185" as="sourcePoint" />
          </mxGeometry>
        </mxCell>
        <mxCell id="q-akzQOQ44o_kOeG1WCX-369" value="&lt;div&gt;MX-Font ++&lt;/div&gt;style 向量和 content 向量尽量方向相反" style="whiteSpace=wrap;html=1;shape=partialRectangle;top=0;left=0;bottom=1;right=0;points=[[0,1],[1,1]];fillColor=none;align=center;verticalAlign=bottom;routingCenterY=0.5;snapToPoint=1;recursiveResize=0;autosize=1;treeFolding=1;treeMoving=1;newEdgeStyle={&quot;edgeStyle&quot;:&quot;entityRelationEdgeStyle&quot;,&quot;startArrow&quot;:&quot;none&quot;,&quot;endArrow&quot;:&quot;none&quot;,&quot;segment&quot;:10,&quot;curved&quot;:1,&quot;sourcePerimeterSpacing&quot;:0,&quot;targetPerimeterSpacing&quot;:0};fontFamily=Comic Sans MS;" parent="q-akzQOQ44o_kOeG1WCX-169" vertex="1">
          <mxGeometry x="210" y="260" width="250" height="40" as="geometry" />
        </mxCell>
        <mxCell id="q-akzQOQ44o_kOeG1WCX-225" value="6. Post-Process" style="swimlane;startSize=20;horizontal=0;childLayout=treeLayout;horizontalTree=1;sortEdges=1;resizable=0;containerType=tree;fontSize=12;fontFamily=Comic Sans MS;sketch=1;curveFitting=1;jiggle=2;" parent="1" vertex="1">
          <mxGeometry x="1456" y="1800" width="880" height="180" as="geometry" />
        </mxCell>
        <mxCell id="q-akzQOQ44o_kOeG1WCX-226" value="Post-Process" style="whiteSpace=wrap;html=1;shape=ellipse;perimeter=ellipsePerimeter;newEdgeStyle={&quot;edgeStyle&quot;:&quot;entityRelationEdgeStyle&quot;,&quot;startArrow&quot;:&quot;none&quot;,&quot;endArrow&quot;:&quot;none&quot;,&quot;segment&quot;:10,&quot;curved&quot;:1,&quot;sourcePerimeterSpacing&quot;:0,&quot;targetPerimeterSpacing&quot;:0};treeFolding=1;treeMoving=1;fontFamily=Comic Sans MS;sketch=1;curveFitting=1;jiggle=2;fillColor=#f8cecc;strokeColor=#b85450;" parent="q-akzQOQ44o_kOeG1WCX-225" vertex="1">
          <mxGeometry x="40" y="95" width="110" height="30" as="geometry" />
        </mxCell>
        <mxCell id="q-akzQOQ44o_kOeG1WCX-235" value="&lt;span style=&quot;font-family: &amp;quot;Comic Sans MS&amp;quot;;&quot;&gt;通过 content image 与 reference image 在 glyph 上的形似度赋予权重&lt;/span&gt;" style="whiteSpace=wrap;html=1;shape=partialRectangle;top=0;left=0;bottom=1;right=0;points=[[0,1],[1,1]];fillColor=none;align=center;verticalAlign=bottom;routingCenterY=0.5;snapToPoint=1;recursiveResize=0;autosize=1;treeFolding=1;treeMoving=1;newEdgeStyle={&quot;edgeStyle&quot;:&quot;entityRelationEdgeStyle&quot;,&quot;startArrow&quot;:&quot;none&quot;,&quot;endArrow&quot;:&quot;none&quot;,&quot;segment&quot;:10,&quot;curved&quot;:1,&quot;sourcePerimeterSpacing&quot;:0,&quot;targetPerimeterSpacing&quot;:0};" parent="q-akzQOQ44o_kOeG1WCX-225" vertex="1">
          <mxGeometry x="200" y="60" width="420" height="30" as="geometry" />
        </mxCell>
        <mxCell id="q-akzQOQ44o_kOeG1WCX-236" value="" style="edgeStyle=entityRelationEdgeStyle;startArrow=none;endArrow=none;segment=10;curved=1;sourcePerimeterSpacing=0;targetPerimeterSpacing=0;rounded=0;" parent="q-akzQOQ44o_kOeG1WCX-225" source="q-akzQOQ44o_kOeG1WCX-226" target="q-akzQOQ44o_kOeG1WCX-235" edge="1">
          <mxGeometry x="-1070" y="-1065" width="80" height="20" as="geometry" />
        </mxCell>
        <mxCell id="q-akzQOQ44o_kOeG1WCX-237" value="" style="edgeStyle=entityRelationEdgeStyle;startArrow=none;endArrow=none;segment=10;curved=1;sourcePerimeterSpacing=0;targetPerimeterSpacing=0;rounded=0;" parent="q-akzQOQ44o_kOeG1WCX-225" source="q-akzQOQ44o_kOeG1WCX-235" target="q-akzQOQ44o_kOeG1WCX-238" edge="1">
          <mxGeometry x="-1070" y="-1065" width="80" height="20" as="geometry">
            <mxPoint x="1450" y="1154" as="sourcePoint" />
          </mxGeometry>
        </mxCell>
        <mxCell id="q-akzQOQ44o_kOeG1WCX-238" value="&lt;span style=&quot;font-family: &amp;quot;Comic Sans MS&amp;quot;;&quot;&gt;2309 VQ-Font&lt;/span&gt;" style="whiteSpace=wrap;html=1;shape=partialRectangle;top=0;left=0;bottom=1;right=0;points=[[0,1],[1,1]];fillColor=none;align=center;verticalAlign=bottom;routingCenterY=0.5;snapToPoint=1;recursiveResize=0;autosize=1;treeFolding=1;treeMoving=1;newEdgeStyle={&quot;edgeStyle&quot;:&quot;entityRelationEdgeStyle&quot;,&quot;startArrow&quot;:&quot;none&quot;,&quot;endArrow&quot;:&quot;none&quot;,&quot;segment&quot;:10,&quot;curved&quot;:1,&quot;sourcePerimeterSpacing&quot;:0,&quot;targetPerimeterSpacing&quot;:0};" parent="q-akzQOQ44o_kOeG1WCX-225" vertex="1">
          <mxGeometry x="670" y="20" width="120" height="30" as="geometry" />
        </mxCell>
        <mxCell id="q-akzQOQ44o_kOeG1WCX-239" value="" style="edgeStyle=entityRelationEdgeStyle;startArrow=none;endArrow=none;segment=10;curved=1;sourcePerimeterSpacing=0;targetPerimeterSpacing=0;rounded=0;" parent="q-akzQOQ44o_kOeG1WCX-225" source="q-akzQOQ44o_kOeG1WCX-235" target="q-akzQOQ44o_kOeG1WCX-240" edge="1">
          <mxGeometry x="-1070" y="-1065" width="80" height="20" as="geometry">
            <mxPoint x="1920" y="1169" as="sourcePoint" />
          </mxGeometry>
        </mxCell>
        <mxCell id="q-akzQOQ44o_kOeG1WCX-240" value="&lt;span style=&quot;font-family: &amp;quot;Comic Sans MS&amp;quot;;&quot;&gt;IF-Font&lt;/span&gt;&lt;div style=&quot;font-family: &amp;quot;Comic Sans MS&amp;quot;;&quot;&gt;通过 IDS 的相似度计算权重&lt;/div&gt;" style="whiteSpace=wrap;html=1;shape=partialRectangle;top=0;left=0;bottom=1;right=0;points=[[0,1],[1,1]];fillColor=none;align=center;verticalAlign=bottom;routingCenterY=0.5;snapToPoint=1;recursiveResize=0;autosize=1;treeFolding=1;treeMoving=1;newEdgeStyle={&quot;edgeStyle&quot;:&quot;entityRelationEdgeStyle&quot;,&quot;startArrow&quot;:&quot;none&quot;,&quot;endArrow&quot;:&quot;none&quot;,&quot;segment&quot;:10,&quot;curved&quot;:1,&quot;sourcePerimeterSpacing&quot;:0,&quot;targetPerimeterSpacing&quot;:0};" parent="q-akzQOQ44o_kOeG1WCX-225" vertex="1">
          <mxGeometry x="670" y="90" width="190" height="40" as="geometry" />
        </mxCell>
        <mxCell id="q-akzQOQ44o_kOeG1WCX-243" value="" style="edgeStyle=entityRelationEdgeStyle;startArrow=none;endArrow=none;segment=10;curved=1;sourcePerimeterSpacing=0;targetPerimeterSpacing=0;rounded=0;" parent="q-akzQOQ44o_kOeG1WCX-225" source="q-akzQOQ44o_kOeG1WCX-226" target="q-akzQOQ44o_kOeG1WCX-244" edge="1">
          <mxGeometry x="-1070" y="-1065" width="80" height="20" as="geometry">
            <mxPoint x="1450" y="1189" as="sourcePoint" />
          </mxGeometry>
        </mxCell>
        <mxCell id="q-akzQOQ44o_kOeG1WCX-244" value="&lt;span style=&quot;font-family: &amp;quot;Comic Sans MS&amp;quot;;&quot;&gt;cfg-like&lt;/span&gt;" style="whiteSpace=wrap;html=1;shape=partialRectangle;top=0;left=0;bottom=1;right=0;points=[[0,1],[1,1]];fillColor=none;align=center;verticalAlign=bottom;routingCenterY=0.5;snapToPoint=1;recursiveResize=0;autosize=1;treeFolding=1;treeMoving=1;newEdgeStyle={&quot;edgeStyle&quot;:&quot;entityRelationEdgeStyle&quot;,&quot;startArrow&quot;:&quot;none&quot;,&quot;endArrow&quot;:&quot;none&quot;,&quot;segment&quot;:10,&quot;curved&quot;:1,&quot;sourcePerimeterSpacing&quot;:0,&quot;targetPerimeterSpacing&quot;:0};" parent="q-akzQOQ44o_kOeG1WCX-225" vertex="1">
          <mxGeometry x="200" y="130" width="80" height="30" as="geometry" />
        </mxCell>
        <mxCell id="q-akzQOQ44o_kOeG1WCX-245" value="" style="edgeStyle=entityRelationEdgeStyle;startArrow=none;endArrow=none;segment=10;curved=1;sourcePerimeterSpacing=0;targetPerimeterSpacing=0;rounded=0;" parent="q-akzQOQ44o_kOeG1WCX-225" source="q-akzQOQ44o_kOeG1WCX-244" target="q-akzQOQ44o_kOeG1WCX-246" edge="1">
          <mxGeometry x="-1070" y="-1065" width="80" height="20" as="geometry">
            <mxPoint x="1450" y="1280" as="sourcePoint" />
          </mxGeometry>
        </mxCell>
        <mxCell id="q-akzQOQ44o_kOeG1WCX-246" value="&lt;span style=&quot;font-family: &amp;quot;Comic Sans MS&amp;quot;;&quot;&gt;Diff-Font&lt;/span&gt;" style="whiteSpace=wrap;html=1;shape=partialRectangle;top=0;left=0;bottom=1;right=0;points=[[0,1],[1,1]];fillColor=none;align=center;verticalAlign=bottom;routingCenterY=0.5;snapToPoint=1;recursiveResize=0;autosize=1;treeFolding=1;treeMoving=1;newEdgeStyle={&quot;edgeStyle&quot;:&quot;entityRelationEdgeStyle&quot;,&quot;startArrow&quot;:&quot;none&quot;,&quot;endArrow&quot;:&quot;none&quot;,&quot;segment&quot;:10,&quot;curved&quot;:1,&quot;sourcePerimeterSpacing&quot;:0,&quot;targetPerimeterSpacing&quot;:0};" parent="q-akzQOQ44o_kOeG1WCX-225" vertex="1">
          <mxGeometry x="330" y="130" width="100" height="30" as="geometry" />
        </mxCell>
        <mxCell id="q-akzQOQ44o_kOeG1WCX-255" value="MindMap" style="swimlane;startSize=20;horizontal=0;childLayout=treeLayout;horizontalTree=1;sortEdges=1;resizable=0;containerType=tree;fontSize=12;fontFamily=Comic Sans MS;sketch=1;curveFitting=1;jiggle=2;" parent="1" vertex="1">
          <mxGeometry x="330" y="2370" width="560" height="570" as="geometry" />
        </mxCell>
        <mxCell id="q-akzQOQ44o_kOeG1WCX-256" value="Evaluation Metric" style="whiteSpace=wrap;html=1;shape=ellipse;perimeter=ellipsePerimeter;newEdgeStyle={&quot;edgeStyle&quot;:&quot;entityRelationEdgeStyle&quot;,&quot;startArrow&quot;:&quot;none&quot;,&quot;endArrow&quot;:&quot;none&quot;,&quot;segment&quot;:10,&quot;curved&quot;:1,&quot;sourcePerimeterSpacing&quot;:0,&quot;targetPerimeterSpacing&quot;:0};treeFolding=1;treeMoving=1;fontFamily=Comic Sans MS;sketch=1;curveFitting=1;jiggle=2;fillColor=#f8cecc;strokeColor=#b85450;" parent="q-akzQOQ44o_kOeG1WCX-255" vertex="1">
          <mxGeometry x="40" y="270" width="140" height="30" as="geometry" />
        </mxCell>
        <mxCell id="q-akzQOQ44o_kOeG1WCX-274" value="&lt;span style=&quot;font-family: &amp;quot;Comic Sans MS&amp;quot;;&quot;&gt;Content Acc, Font Acc, pixel-level Acc&lt;/span&gt;" style="whiteSpace=wrap;html=1;shape=partialRectangle;top=0;left=0;bottom=1;right=0;points=[[0,1],[1,1]];fillColor=none;align=center;verticalAlign=bottom;routingCenterY=0.5;snapToPoint=1;recursiveResize=0;autosize=1;treeFolding=1;treeMoving=1;newEdgeStyle={&quot;edgeStyle&quot;:&quot;entityRelationEdgeStyle&quot;,&quot;startArrow&quot;:&quot;none&quot;,&quot;endArrow&quot;:&quot;none&quot;,&quot;segment&quot;:10,&quot;curved&quot;:1,&quot;sourcePerimeterSpacing&quot;:0,&quot;targetPerimeterSpacing&quot;:0};" parent="q-akzQOQ44o_kOeG1WCX-255" vertex="1">
          <mxGeometry x="230" y="20" width="260" height="30" as="geometry" />
        </mxCell>
        <mxCell id="q-akzQOQ44o_kOeG1WCX-275" value="" style="edgeStyle=entityRelationEdgeStyle;startArrow=none;endArrow=none;segment=10;curved=1;sourcePerimeterSpacing=0;targetPerimeterSpacing=0;rounded=0;" parent="q-akzQOQ44o_kOeG1WCX-255" source="q-akzQOQ44o_kOeG1WCX-256" target="q-akzQOQ44o_kOeG1WCX-274" edge="1">
          <mxGeometry x="-1070" y="-1500" width="80" height="20" as="geometry" />
        </mxCell>
        <mxCell id="q-akzQOQ44o_kOeG1WCX-276" value="" style="edgeStyle=entityRelationEdgeStyle;startArrow=none;endArrow=none;segment=10;curved=1;sourcePerimeterSpacing=0;targetPerimeterSpacing=0;rounded=0;" parent="q-akzQOQ44o_kOeG1WCX-255" source="q-akzQOQ44o_kOeG1WCX-256" target="q-akzQOQ44o_kOeG1WCX-277" edge="1">
          <mxGeometry x="-1070" y="-1500" width="80" height="20" as="geometry">
            <mxPoint x="1465" y="825" as="sourcePoint" />
          </mxGeometry>
        </mxCell>
        <mxCell id="q-akzQOQ44o_kOeG1WCX-277" value="&lt;span style=&quot;font-family: &amp;quot;Comic Sans MS&amp;quot;;&quot;&gt;seen/unseen font + seen/unseen character 组合&lt;/span&gt;" style="whiteSpace=wrap;html=1;shape=partialRectangle;top=0;left=0;bottom=1;right=0;points=[[0,1],[1,1]];fillColor=none;align=center;verticalAlign=bottom;routingCenterY=0.5;snapToPoint=1;recursiveResize=0;autosize=1;treeFolding=1;treeMoving=1;newEdgeStyle={&quot;edgeStyle&quot;:&quot;entityRelationEdgeStyle&quot;,&quot;startArrow&quot;:&quot;none&quot;,&quot;endArrow&quot;:&quot;none&quot;,&quot;segment&quot;:10,&quot;curved&quot;:1,&quot;sourcePerimeterSpacing&quot;:0,&quot;targetPerimeterSpacing&quot;:0};" parent="q-akzQOQ44o_kOeG1WCX-255" vertex="1">
          <mxGeometry x="230" y="90" width="310" height="30" as="geometry" />
        </mxCell>
        <mxCell id="q-akzQOQ44o_kOeG1WCX-278" value="" style="edgeStyle=entityRelationEdgeStyle;startArrow=none;endArrow=none;segment=10;curved=1;sourcePerimeterSpacing=0;targetPerimeterSpacing=0;rounded=0;" parent="q-akzQOQ44o_kOeG1WCX-255" source="q-akzQOQ44o_kOeG1WCX-256" target="q-akzQOQ44o_kOeG1WCX-279" edge="1">
          <mxGeometry x="-1070" y="-1500" width="80" height="20" as="geometry">
            <mxPoint x="1465" y="860" as="sourcePoint" />
          </mxGeometry>
        </mxCell>
        <mxCell id="q-akzQOQ44o_kOeG1WCX-279" value="&lt;span style=&quot;font-family: &amp;quot;Comic Sans MS&amp;quot;;&quot;&gt;SSIM&lt;/span&gt;" style="whiteSpace=wrap;html=1;shape=partialRectangle;top=0;left=0;bottom=1;right=0;points=[[0,1],[1,1]];fillColor=none;align=center;verticalAlign=bottom;routingCenterY=0.5;snapToPoint=1;recursiveResize=0;autosize=1;treeFolding=1;treeMoving=1;newEdgeStyle={&quot;edgeStyle&quot;:&quot;entityRelationEdgeStyle&quot;,&quot;startArrow&quot;:&quot;none&quot;,&quot;endArrow&quot;:&quot;none&quot;,&quot;segment&quot;:10,&quot;curved&quot;:1,&quot;sourcePerimeterSpacing&quot;:0,&quot;targetPerimeterSpacing&quot;:0};" parent="q-akzQOQ44o_kOeG1WCX-255" vertex="1">
          <mxGeometry x="230" y="160" width="70" height="30" as="geometry" />
        </mxCell>
        <mxCell id="q-akzQOQ44o_kOeG1WCX-280" value="" style="edgeStyle=entityRelationEdgeStyle;startArrow=none;endArrow=none;segment=10;curved=1;sourcePerimeterSpacing=0;targetPerimeterSpacing=0;rounded=0;" parent="q-akzQOQ44o_kOeG1WCX-255" source="q-akzQOQ44o_kOeG1WCX-256" target="q-akzQOQ44o_kOeG1WCX-281" edge="1">
          <mxGeometry x="-1070" y="-1500" width="80" height="20" as="geometry">
            <mxPoint x="1465" y="930" as="sourcePoint" />
          </mxGeometry>
        </mxCell>
        <mxCell id="q-akzQOQ44o_kOeG1WCX-281" value="&lt;span style=&quot;font-family: &amp;quot;Comic Sans MS&amp;quot;;&quot;&gt;IS&lt;/span&gt;" style="whiteSpace=wrap;html=1;shape=partialRectangle;top=0;left=0;bottom=1;right=0;points=[[0,1],[1,1]];fillColor=none;align=center;verticalAlign=bottom;routingCenterY=0.5;snapToPoint=1;recursiveResize=0;autosize=1;treeFolding=1;treeMoving=1;newEdgeStyle={&quot;edgeStyle&quot;:&quot;entityRelationEdgeStyle&quot;,&quot;startArrow&quot;:&quot;none&quot;,&quot;endArrow&quot;:&quot;none&quot;,&quot;segment&quot;:10,&quot;curved&quot;:1,&quot;sourcePerimeterSpacing&quot;:0,&quot;targetPerimeterSpacing&quot;:0};" parent="q-akzQOQ44o_kOeG1WCX-255" vertex="1">
          <mxGeometry x="230" y="230" width="60" height="30" as="geometry" />
        </mxCell>
        <mxCell id="q-akzQOQ44o_kOeG1WCX-282" value="" style="edgeStyle=entityRelationEdgeStyle;startArrow=none;endArrow=none;segment=10;curved=1;sourcePerimeterSpacing=0;targetPerimeterSpacing=0;rounded=0;" parent="q-akzQOQ44o_kOeG1WCX-255" source="q-akzQOQ44o_kOeG1WCX-256" target="q-akzQOQ44o_kOeG1WCX-283" edge="1">
          <mxGeometry x="-1070" y="-1500" width="80" height="20" as="geometry">
            <mxPoint x="1465" y="1035" as="sourcePoint" />
          </mxGeometry>
        </mxCell>
        <mxCell id="q-akzQOQ44o_kOeG1WCX-283" value="&lt;span style=&quot;font-family: &amp;quot;Comic Sans MS&amp;quot;;&quot;&gt;FID&lt;/span&gt;" style="whiteSpace=wrap;html=1;shape=partialRectangle;top=0;left=0;bottom=1;right=0;points=[[0,1],[1,1]];fillColor=none;align=center;verticalAlign=bottom;routingCenterY=0.5;snapToPoint=1;recursiveResize=0;autosize=1;treeFolding=1;treeMoving=1;newEdgeStyle={&quot;edgeStyle&quot;:&quot;entityRelationEdgeStyle&quot;,&quot;startArrow&quot;:&quot;none&quot;,&quot;endArrow&quot;:&quot;none&quot;,&quot;segment&quot;:10,&quot;curved&quot;:1,&quot;sourcePerimeterSpacing&quot;:0,&quot;targetPerimeterSpacing&quot;:0};" parent="q-akzQOQ44o_kOeG1WCX-255" vertex="1">
          <mxGeometry x="230" y="300" width="60" height="30" as="geometry" />
        </mxCell>
        <mxCell id="q-akzQOQ44o_kOeG1WCX-284" value="" style="edgeStyle=entityRelationEdgeStyle;startArrow=none;endArrow=none;segment=10;curved=1;sourcePerimeterSpacing=0;targetPerimeterSpacing=0;rounded=0;" parent="q-akzQOQ44o_kOeG1WCX-255" source="q-akzQOQ44o_kOeG1WCX-256" target="q-akzQOQ44o_kOeG1WCX-285" edge="1">
          <mxGeometry x="-1070" y="-1500" width="80" height="20" as="geometry">
            <mxPoint x="1465" y="1175" as="sourcePoint" />
          </mxGeometry>
        </mxCell>
        <mxCell id="q-akzQOQ44o_kOeG1WCX-285" value="&lt;span style=&quot;font-family: &amp;quot;Comic Sans MS&amp;quot;;&quot;&gt;LPIPS&lt;/span&gt;" style="whiteSpace=wrap;html=1;shape=partialRectangle;top=0;left=0;bottom=1;right=0;points=[[0,1],[1,1]];fillColor=none;align=center;verticalAlign=bottom;routingCenterY=0.5;snapToPoint=1;recursiveResize=0;autosize=1;treeFolding=1;treeMoving=1;newEdgeStyle={&quot;edgeStyle&quot;:&quot;entityRelationEdgeStyle&quot;,&quot;startArrow&quot;:&quot;none&quot;,&quot;endArrow&quot;:&quot;none&quot;,&quot;segment&quot;:10,&quot;curved&quot;:1,&quot;sourcePerimeterSpacing&quot;:0,&quot;targetPerimeterSpacing&quot;:0};" parent="q-akzQOQ44o_kOeG1WCX-255" vertex="1">
          <mxGeometry x="230" y="370" width="70" height="30" as="geometry" />
        </mxCell>
        <mxCell id="q-akzQOQ44o_kOeG1WCX-286" value="" style="edgeStyle=entityRelationEdgeStyle;startArrow=none;endArrow=none;segment=10;curved=1;sourcePerimeterSpacing=0;targetPerimeterSpacing=0;rounded=0;" parent="q-akzQOQ44o_kOeG1WCX-255" source="q-akzQOQ44o_kOeG1WCX-256" target="q-akzQOQ44o_kOeG1WCX-287" edge="1">
          <mxGeometry x="-1070" y="-1500" width="80" height="20" as="geometry">
            <mxPoint x="1465" y="1350" as="sourcePoint" />
          </mxGeometry>
        </mxCell>
        <mxCell id="q-akzQOQ44o_kOeG1WCX-287" value="&lt;div style=&quot;font-family: &amp;quot;Comic Sans MS&amp;quot;;&quot;&gt;FontDiffuser 提出&lt;/div&gt;&lt;span style=&quot;font-family: &amp;quot;Comic Sans MS&amp;quot;;&quot;&gt;不同的笔画数量将文字的生成难度分级&lt;/span&gt;" style="whiteSpace=wrap;html=1;shape=partialRectangle;top=0;left=0;bottom=1;right=0;points=[[0,1],[1,1]];fillColor=none;align=center;verticalAlign=bottom;routingCenterY=0.5;snapToPoint=1;recursiveResize=0;autosize=1;treeFolding=1;treeMoving=1;newEdgeStyle={&quot;edgeStyle&quot;:&quot;entityRelationEdgeStyle&quot;,&quot;startArrow&quot;:&quot;none&quot;,&quot;endArrow&quot;:&quot;none&quot;,&quot;segment&quot;:10,&quot;curved&quot;:1,&quot;sourcePerimeterSpacing&quot;:0,&quot;targetPerimeterSpacing&quot;:0};" parent="q-akzQOQ44o_kOeG1WCX-255" vertex="1">
          <mxGeometry x="230" y="440" width="240" height="40" as="geometry" />
        </mxCell>
        <mxCell id="q-akzQOQ44o_kOeG1WCX-288" value="" style="edgeStyle=entityRelationEdgeStyle;startArrow=none;endArrow=none;segment=10;curved=1;sourcePerimeterSpacing=0;targetPerimeterSpacing=0;rounded=0;" parent="q-akzQOQ44o_kOeG1WCX-255" source="q-akzQOQ44o_kOeG1WCX-256" target="q-akzQOQ44o_kOeG1WCX-289" edge="1">
          <mxGeometry x="-1070" y="-1500" width="80" height="20" as="geometry">
            <mxPoint x="1465" y="1560" as="sourcePoint" />
          </mxGeometry>
        </mxCell>
        <mxCell id="q-akzQOQ44o_kOeG1WCX-289" value="&lt;div style=&quot;font-family: &amp;quot;Comic Sans MS&amp;quot;;&quot;&gt;在不同的 reference image 数量上进行评估&lt;/div&gt;" style="whiteSpace=wrap;html=1;shape=partialRectangle;top=0;left=0;bottom=1;right=0;points=[[0,1],[1,1]];fillColor=none;align=center;verticalAlign=bottom;routingCenterY=0.5;snapToPoint=1;recursiveResize=0;autosize=1;treeFolding=1;treeMoving=1;newEdgeStyle={&quot;edgeStyle&quot;:&quot;entityRelationEdgeStyle&quot;,&quot;startArrow&quot;:&quot;none&quot;,&quot;endArrow&quot;:&quot;none&quot;,&quot;segment&quot;:10,&quot;curved&quot;:1,&quot;sourcePerimeterSpacing&quot;:0,&quot;targetPerimeterSpacing&quot;:0};" parent="q-akzQOQ44o_kOeG1WCX-255" vertex="1">
          <mxGeometry x="230" y="520" width="270" height="30" as="geometry" />
        </mxCell>
        <mxCell id="q-akzQOQ44o_kOeG1WCX-290" value="MindMap" style="swimlane;startSize=20;horizontal=0;childLayout=treeLayout;horizontalTree=1;sortEdges=1;resizable=0;containerType=tree;fontSize=12;fontFamily=Comic Sans MS;sketch=1;curveFitting=1;jiggle=2;" parent="1" vertex="1">
          <mxGeometry x="1010" y="2545" width="530" height="220" as="geometry" />
        </mxCell>
        <mxCell id="q-akzQOQ44o_kOeG1WCX-291" value="Dataset" style="whiteSpace=wrap;html=1;shape=ellipse;perimeter=ellipsePerimeter;newEdgeStyle={&quot;edgeStyle&quot;:&quot;entityRelationEdgeStyle&quot;,&quot;startArrow&quot;:&quot;none&quot;,&quot;endArrow&quot;:&quot;none&quot;,&quot;segment&quot;:10,&quot;curved&quot;:1,&quot;sourcePerimeterSpacing&quot;:0,&quot;targetPerimeterSpacing&quot;:0};treeFolding=1;treeMoving=1;fontFamily=Comic Sans MS;sketch=1;curveFitting=1;jiggle=2;fillColor=#f8cecc;strokeColor=#b85450;" parent="q-akzQOQ44o_kOeG1WCX-290" vertex="1">
          <mxGeometry x="40" y="95" width="90" height="30" as="geometry" />
        </mxCell>
        <mxCell id="q-akzQOQ44o_kOeG1WCX-302" value="&lt;span style=&quot;font-family: &amp;quot;Comic Sans MS&amp;quot;;&quot;&gt;AttrFont-ENG&lt;/span&gt;&lt;div style=&quot;font-family: &amp;quot;Comic Sans MS&amp;quot;;&quot;&gt;带有属性的数据&lt;/div&gt;" style="whiteSpace=wrap;html=1;shape=partialRectangle;top=0;left=0;bottom=1;right=0;points=[[0,1],[1,1]];fillColor=none;align=center;verticalAlign=bottom;routingCenterY=0.5;snapToPoint=1;recursiveResize=0;autosize=1;treeFolding=1;treeMoving=1;newEdgeStyle={&quot;edgeStyle&quot;:&quot;entityRelationEdgeStyle&quot;,&quot;startArrow&quot;:&quot;none&quot;,&quot;endArrow&quot;:&quot;none&quot;,&quot;segment&quot;:10,&quot;curved&quot;:1,&quot;sourcePerimeterSpacing&quot;:0,&quot;targetPerimeterSpacing&quot;:0};" parent="q-akzQOQ44o_kOeG1WCX-290" vertex="1">
          <mxGeometry x="180" y="20" width="120" height="40" as="geometry" />
        </mxCell>
        <mxCell id="q-akzQOQ44o_kOeG1WCX-303" value="" style="edgeStyle=entityRelationEdgeStyle;startArrow=none;endArrow=none;segment=10;curved=1;sourcePerimeterSpacing=0;targetPerimeterSpacing=0;rounded=0;" parent="q-akzQOQ44o_kOeG1WCX-290" source="q-akzQOQ44o_kOeG1WCX-291" target="q-akzQOQ44o_kOeG1WCX-302" edge="1">
          <mxGeometry x="-1070" y="-1525" width="80" height="20" as="geometry" />
        </mxCell>
        <mxCell id="q-akzQOQ44o_kOeG1WCX-304" value="" style="edgeStyle=entityRelationEdgeStyle;startArrow=none;endArrow=none;segment=10;curved=1;sourcePerimeterSpacing=0;targetPerimeterSpacing=0;rounded=0;" parent="q-akzQOQ44o_kOeG1WCX-290" source="q-akzQOQ44o_kOeG1WCX-302" target="q-akzQOQ44o_kOeG1WCX-305" edge="1">
          <mxGeometry x="-1070" y="-1525" width="80" height="20" as="geometry">
            <mxPoint x="1440" y="1540" as="sourcePoint" />
          </mxGeometry>
        </mxCell>
        <mxCell id="q-akzQOQ44o_kOeG1WCX-305" value="&lt;span style=&quot;font-family: &amp;quot;Comic Sans MS&amp;quot;;&quot;&gt;Attribute2Font 提出&lt;/span&gt;" style="whiteSpace=wrap;html=1;shape=partialRectangle;top=0;left=0;bottom=1;right=0;points=[[0,1],[1,1]];fillColor=none;align=center;verticalAlign=bottom;routingCenterY=0.5;snapToPoint=1;recursiveResize=0;autosize=1;treeFolding=1;treeMoving=1;newEdgeStyle={&quot;edgeStyle&quot;:&quot;entityRelationEdgeStyle&quot;,&quot;startArrow&quot;:&quot;none&quot;,&quot;endArrow&quot;:&quot;none&quot;,&quot;segment&quot;:10,&quot;curved&quot;:1,&quot;sourcePerimeterSpacing&quot;:0,&quot;targetPerimeterSpacing&quot;:0};" parent="q-akzQOQ44o_kOeG1WCX-290" vertex="1">
          <mxGeometry x="350" y="25" width="160" height="30" as="geometry" />
        </mxCell>
        <mxCell id="q-akzQOQ44o_kOeG1WCX-306" value="" style="edgeStyle=entityRelationEdgeStyle;startArrow=none;endArrow=none;segment=10;curved=1;sourcePerimeterSpacing=0;targetPerimeterSpacing=0;rounded=0;" parent="q-akzQOQ44o_kOeG1WCX-290" source="q-akzQOQ44o_kOeG1WCX-291" target="q-akzQOQ44o_kOeG1WCX-307" edge="1">
          <mxGeometry x="-1070" y="-1525" width="80" height="20" as="geometry">
            <mxPoint x="1440" y="1540" as="sourcePoint" />
          </mxGeometry>
        </mxCell>
        <mxCell id="q-akzQOQ44o_kOeG1WCX-307" value="&lt;span style=&quot;font-family: &amp;quot;Comic Sans MS&amp;quot;;&quot;&gt;从开源字体库中生成数据&lt;/span&gt;" style="whiteSpace=wrap;html=1;shape=partialRectangle;top=0;left=0;bottom=1;right=0;points=[[0,1],[1,1]];fillColor=none;align=center;verticalAlign=bottom;routingCenterY=0.5;snapToPoint=1;recursiveResize=0;autosize=1;treeFolding=1;treeMoving=1;newEdgeStyle={&quot;edgeStyle&quot;:&quot;entityRelationEdgeStyle&quot;,&quot;startArrow&quot;:&quot;none&quot;,&quot;endArrow&quot;:&quot;none&quot;,&quot;segment&quot;:10,&quot;curved&quot;:1,&quot;sourcePerimeterSpacing&quot;:0,&quot;targetPerimeterSpacing&quot;:0};" parent="q-akzQOQ44o_kOeG1WCX-290" vertex="1">
          <mxGeometry x="180" y="100" width="170" height="30" as="geometry" />
        </mxCell>
        <mxCell id="q-akzQOQ44o_kOeG1WCX-308" value="" style="edgeStyle=entityRelationEdgeStyle;startArrow=none;endArrow=none;segment=10;curved=1;sourcePerimeterSpacing=0;targetPerimeterSpacing=0;rounded=0;" parent="q-akzQOQ44o_kOeG1WCX-290" source="q-akzQOQ44o_kOeG1WCX-307" target="q-akzQOQ44o_kOeG1WCX-309" edge="1">
          <mxGeometry x="-1070" y="-1525" width="80" height="20" as="geometry">
            <mxPoint x="1440" y="1585" as="sourcePoint" />
          </mxGeometry>
        </mxCell>
        <mxCell id="q-akzQOQ44o_kOeG1WCX-309" value="&lt;span style=&quot;font-family: &amp;quot;Comic Sans MS&amp;quot;;&quot;&gt;方正字库&lt;/span&gt;" style="whiteSpace=wrap;html=1;shape=partialRectangle;top=0;left=0;bottom=1;right=0;points=[[0,1],[1,1]];fillColor=none;align=center;verticalAlign=bottom;routingCenterY=0.5;snapToPoint=1;recursiveResize=0;autosize=1;treeFolding=1;treeMoving=1;newEdgeStyle={&quot;edgeStyle&quot;:&quot;entityRelationEdgeStyle&quot;,&quot;startArrow&quot;:&quot;none&quot;,&quot;endArrow&quot;:&quot;none&quot;,&quot;segment&quot;:10,&quot;curved&quot;:1,&quot;sourcePerimeterSpacing&quot;:0,&quot;targetPerimeterSpacing&quot;:0};" parent="q-akzQOQ44o_kOeG1WCX-290" vertex="1">
          <mxGeometry x="400" y="100" width="90" height="30" as="geometry" />
        </mxCell>
        <mxCell id="q-akzQOQ44o_kOeG1WCX-310" value="" style="edgeStyle=entityRelationEdgeStyle;startArrow=none;endArrow=none;segment=10;curved=1;sourcePerimeterSpacing=0;targetPerimeterSpacing=0;rounded=0;" parent="q-akzQOQ44o_kOeG1WCX-290" source="q-akzQOQ44o_kOeG1WCX-291" target="q-akzQOQ44o_kOeG1WCX-311" edge="1">
          <mxGeometry x="-1070" y="-1525" width="80" height="20" as="geometry">
            <mxPoint x="1440" y="1585" as="sourcePoint" />
          </mxGeometry>
        </mxCell>
        <mxCell id="q-akzQOQ44o_kOeG1WCX-311" value="&lt;span style=&quot;font-family: &amp;quot;Comic Sans MS&amp;quot;;&quot;&gt;FTransGAN, DS-Font 数据集&lt;/span&gt;" style="whiteSpace=wrap;html=1;shape=partialRectangle;top=0;left=0;bottom=1;right=0;points=[[0,1],[1,1]];fillColor=none;align=center;verticalAlign=bottom;routingCenterY=0.5;snapToPoint=1;recursiveResize=0;autosize=1;treeFolding=1;treeMoving=1;newEdgeStyle={&quot;edgeStyle&quot;:&quot;entityRelationEdgeStyle&quot;,&quot;startArrow&quot;:&quot;none&quot;,&quot;endArrow&quot;:&quot;none&quot;,&quot;segment&quot;:10,&quot;curved&quot;:1,&quot;sourcePerimeterSpacing&quot;:0,&quot;targetPerimeterSpacing&quot;:0};" parent="q-akzQOQ44o_kOeG1WCX-290" vertex="1">
          <mxGeometry x="180" y="170" width="200" height="30" as="geometry" />
        </mxCell>
        <mxCell id="q-akzQOQ44o_kOeG1WCX-312" value="MindMap" style="swimlane;startSize=20;horizontal=0;childLayout=treeLayout;horizontalTree=1;sortEdges=1;resizable=0;containerType=tree;fontSize=12;fontFamily=Comic Sans MS;sketch=1;curveFitting=1;jiggle=2;" parent="1" vertex="1">
          <mxGeometry x="1670" y="2370" width="700" height="965" as="geometry" />
        </mxCell>
        <mxCell id="q-akzQOQ44o_kOeG1WCX-313" value="Loss Func" style="whiteSpace=wrap;html=1;shape=ellipse;perimeter=ellipsePerimeter;newEdgeStyle={&quot;edgeStyle&quot;:&quot;entityRelationEdgeStyle&quot;,&quot;startArrow&quot;:&quot;none&quot;,&quot;endArrow&quot;:&quot;none&quot;,&quot;segment&quot;:10,&quot;curved&quot;:1,&quot;sourcePerimeterSpacing&quot;:0,&quot;targetPerimeterSpacing&quot;:0};treeFolding=1;treeMoving=1;fontFamily=Comic Sans MS;sketch=1;curveFitting=1;jiggle=2;fillColor=#f8cecc;strokeColor=#b85450;" parent="q-akzQOQ44o_kOeG1WCX-312" vertex="1">
          <mxGeometry x="40" y="462.5" width="90" height="30" as="geometry" />
        </mxCell>
        <mxCell id="q-akzQOQ44o_kOeG1WCX-322" value="" style="edgeStyle=entityRelationEdgeStyle;startArrow=none;endArrow=none;segment=10;curved=1;sourcePerimeterSpacing=0;targetPerimeterSpacing=0;rounded=0;" parent="q-akzQOQ44o_kOeG1WCX-312" source="q-akzQOQ44o_kOeG1WCX-313" target="q-akzQOQ44o_kOeG1WCX-323" edge="1">
          <mxGeometry x="-1070" y="-1525" width="80" height="20" as="geometry">
            <mxPoint x="1440" y="-790" as="sourcePoint" />
          </mxGeometry>
        </mxCell>
        <mxCell id="q-akzQOQ44o_kOeG1WCX-323" value="&lt;span style=&quot;font-family: &amp;quot;Comic Sans MS&amp;quot;;&quot;&gt;content image / gt image / reference image 自己生成自己&lt;/span&gt;" style="whiteSpace=wrap;html=1;shape=partialRectangle;top=0;left=0;bottom=1;right=0;points=[[0,1],[1,1]];fillColor=none;align=center;verticalAlign=bottom;routingCenterY=0.5;snapToPoint=1;recursiveResize=0;autosize=1;treeFolding=1;treeMoving=1;newEdgeStyle={&quot;edgeStyle&quot;:&quot;entityRelationEdgeStyle&quot;,&quot;startArrow&quot;:&quot;none&quot;,&quot;endArrow&quot;:&quot;none&quot;,&quot;segment&quot;:10,&quot;curved&quot;:1,&quot;sourcePerimeterSpacing&quot;:0,&quot;targetPerimeterSpacing&quot;:0};" parent="q-akzQOQ44o_kOeG1WCX-312" vertex="1">
          <mxGeometry x="180" y="55" width="360" height="30" as="geometry" />
        </mxCell>
        <mxCell id="q-akzQOQ44o_kOeG1WCX-324" value="" style="edgeStyle=entityRelationEdgeStyle;startArrow=none;endArrow=none;segment=10;curved=1;sourcePerimeterSpacing=0;targetPerimeterSpacing=0;rounded=0;" parent="q-akzQOQ44o_kOeG1WCX-312" source="q-akzQOQ44o_kOeG1WCX-323" target="q-akzQOQ44o_kOeG1WCX-325" edge="1">
          <mxGeometry x="-1070" y="-1525" width="80" height="20" as="geometry">
            <mxPoint x="1440" y="-465" as="sourcePoint" />
          </mxGeometry>
        </mxCell>
        <mxCell id="q-akzQOQ44o_kOeG1WCX-325" value="&lt;span style=&quot;font-family: &amp;quot;Comic Sans MS&amp;quot;;&quot;&gt;Fs-Font&lt;/span&gt;" style="whiteSpace=wrap;html=1;shape=partialRectangle;top=0;left=0;bottom=1;right=0;points=[[0,1],[1,1]];fillColor=none;align=center;verticalAlign=bottom;routingCenterY=0.5;snapToPoint=1;recursiveResize=0;autosize=1;treeFolding=1;treeMoving=1;newEdgeStyle={&quot;edgeStyle&quot;:&quot;entityRelationEdgeStyle&quot;,&quot;startArrow&quot;:&quot;none&quot;,&quot;endArrow&quot;:&quot;none&quot;,&quot;segment&quot;:10,&quot;curved&quot;:1,&quot;sourcePerimeterSpacing&quot;:0,&quot;targetPerimeterSpacing&quot;:0};" parent="q-akzQOQ44o_kOeG1WCX-312" vertex="1">
          <mxGeometry x="590" y="20" width="80" height="30" as="geometry" />
        </mxCell>
        <mxCell id="q-akzQOQ44o_kOeG1WCX-326" value="" style="edgeStyle=entityRelationEdgeStyle;startArrow=none;endArrow=none;segment=10;curved=1;sourcePerimeterSpacing=0;targetPerimeterSpacing=0;rounded=0;" parent="q-akzQOQ44o_kOeG1WCX-312" source="q-akzQOQ44o_kOeG1WCX-323" target="q-akzQOQ44o_kOeG1WCX-327" edge="1">
          <mxGeometry x="-1070" y="-1525" width="80" height="20" as="geometry">
            <mxPoint x="1850" y="-450" as="sourcePoint" />
          </mxGeometry>
        </mxCell>
        <mxCell id="q-akzQOQ44o_kOeG1WCX-327" value="&lt;span style=&quot;font-family: &amp;quot;Comic Sans MS&amp;quot;;&quot;&gt;CG-GAN&lt;/span&gt;" style="whiteSpace=wrap;html=1;shape=partialRectangle;top=0;left=0;bottom=1;right=0;points=[[0,1],[1,1]];fillColor=none;align=center;verticalAlign=bottom;routingCenterY=0.5;snapToPoint=1;recursiveResize=0;autosize=1;treeFolding=1;treeMoving=1;newEdgeStyle={&quot;edgeStyle&quot;:&quot;entityRelationEdgeStyle&quot;,&quot;startArrow&quot;:&quot;none&quot;,&quot;endArrow&quot;:&quot;none&quot;,&quot;segment&quot;:10,&quot;curved&quot;:1,&quot;sourcePerimeterSpacing&quot;:0,&quot;targetPerimeterSpacing&quot;:0};" parent="q-akzQOQ44o_kOeG1WCX-312" vertex="1">
          <mxGeometry x="590" y="90" width="90" height="30" as="geometry" />
        </mxCell>
        <mxCell id="q-akzQOQ44o_kOeG1WCX-330" value="" style="edgeStyle=entityRelationEdgeStyle;startArrow=none;endArrow=none;segment=10;curved=1;sourcePerimeterSpacing=0;targetPerimeterSpacing=0;rounded=0;" parent="q-akzQOQ44o_kOeG1WCX-312" source="q-akzQOQ44o_kOeG1WCX-313" target="q-akzQOQ44o_kOeG1WCX-331" edge="1">
          <mxGeometry x="-1070" y="-1525" width="80" height="20" as="geometry">
            <mxPoint x="1440" y="-360" as="sourcePoint" />
          </mxGeometry>
        </mxCell>
        <mxCell id="q-akzQOQ44o_kOeG1WCX-331" value="&lt;span style=&quot;font-family: &amp;quot;Comic Sans MS&amp;quot;;&quot;&gt;对比学习监督&lt;/span&gt;" style="whiteSpace=wrap;html=1;shape=partialRectangle;top=0;left=0;bottom=1;right=0;points=[[0,1],[1,1]];fillColor=none;align=center;verticalAlign=bottom;routingCenterY=0.5;snapToPoint=1;recursiveResize=0;autosize=1;treeFolding=1;treeMoving=1;newEdgeStyle={&quot;edgeStyle&quot;:&quot;entityRelationEdgeStyle&quot;,&quot;startArrow&quot;:&quot;none&quot;,&quot;endArrow&quot;:&quot;none&quot;,&quot;segment&quot;:10,&quot;curved&quot;:1,&quot;sourcePerimeterSpacing&quot;:0,&quot;targetPerimeterSpacing&quot;:0};" parent="q-akzQOQ44o_kOeG1WCX-312" vertex="1">
          <mxGeometry x="180" y="160" width="110" height="30" as="geometry" />
        </mxCell>
        <mxCell id="q-akzQOQ44o_kOeG1WCX-332" value="" style="edgeStyle=entityRelationEdgeStyle;startArrow=none;endArrow=none;segment=10;curved=1;sourcePerimeterSpacing=0;targetPerimeterSpacing=0;rounded=0;" parent="q-akzQOQ44o_kOeG1WCX-312" source="q-akzQOQ44o_kOeG1WCX-331" target="q-akzQOQ44o_kOeG1WCX-333" edge="1">
          <mxGeometry x="-1070" y="-1525" width="80" height="20" as="geometry">
            <mxPoint x="1440" y="-227" as="sourcePoint" />
          </mxGeometry>
        </mxCell>
        <mxCell id="q-akzQOQ44o_kOeG1WCX-333" value="&lt;font face=&quot;Comic Sans MS&quot;&gt;FontDiffuser&lt;/font&gt;" style="whiteSpace=wrap;html=1;shape=partialRectangle;top=0;left=0;bottom=1;right=0;points=[[0,1],[1,1]];fillColor=none;align=center;verticalAlign=bottom;routingCenterY=0.5;snapToPoint=1;recursiveResize=0;autosize=1;treeFolding=1;treeMoving=1;newEdgeStyle={&quot;edgeStyle&quot;:&quot;entityRelationEdgeStyle&quot;,&quot;startArrow&quot;:&quot;none&quot;,&quot;endArrow&quot;:&quot;none&quot;,&quot;segment&quot;:10,&quot;curved&quot;:1,&quot;sourcePerimeterSpacing&quot;:0,&quot;targetPerimeterSpacing&quot;:0};" parent="q-akzQOQ44o_kOeG1WCX-312" vertex="1">
          <mxGeometry x="340" y="125" width="110" height="30" as="geometry" />
        </mxCell>
        <mxCell id="q-akzQOQ44o_kOeG1WCX-334" value="" style="edgeStyle=entityRelationEdgeStyle;startArrow=none;endArrow=none;segment=10;curved=1;sourcePerimeterSpacing=0;targetPerimeterSpacing=0;rounded=0;" parent="q-akzQOQ44o_kOeG1WCX-312" source="q-akzQOQ44o_kOeG1WCX-331" target="q-akzQOQ44o_kOeG1WCX-335" edge="1">
          <mxGeometry x="-1070" y="-1525" width="80" height="20" as="geometry">
            <mxPoint x="1780" y="5.5" as="sourcePoint" />
          </mxGeometry>
        </mxCell>
        <mxCell id="q-akzQOQ44o_kOeG1WCX-335" value="&lt;font face=&quot;Comic Sans MS&quot;&gt;FontNet (使用 triplet loss)&lt;/font&gt;" style="whiteSpace=wrap;html=1;shape=partialRectangle;top=0;left=0;bottom=1;right=0;points=[[0,1],[1,1]];fillColor=none;align=center;verticalAlign=bottom;routingCenterY=0.5;snapToPoint=1;recursiveResize=0;autosize=1;treeFolding=1;treeMoving=1;newEdgeStyle={&quot;edgeStyle&quot;:&quot;entityRelationEdgeStyle&quot;,&quot;startArrow&quot;:&quot;none&quot;,&quot;endArrow&quot;:&quot;none&quot;,&quot;segment&quot;:10,&quot;curved&quot;:1,&quot;sourcePerimeterSpacing&quot;:0,&quot;targetPerimeterSpacing&quot;:0};" parent="q-akzQOQ44o_kOeG1WCX-312" vertex="1">
          <mxGeometry x="340" y="195" width="190" height="30" as="geometry" />
        </mxCell>
        <mxCell id="q-akzQOQ44o_kOeG1WCX-336" value="" style="edgeStyle=entityRelationEdgeStyle;startArrow=none;endArrow=none;segment=10;curved=1;sourcePerimeterSpacing=0;targetPerimeterSpacing=0;rounded=0;" parent="q-akzQOQ44o_kOeG1WCX-312" source="q-akzQOQ44o_kOeG1WCX-313" target="q-akzQOQ44o_kOeG1WCX-337" edge="1">
          <mxGeometry x="-1070" y="-1525" width="80" height="20" as="geometry">
            <mxPoint x="1440" y="-81.5" as="sourcePoint" />
          </mxGeometry>
        </mxCell>
        <mxCell id="q-akzQOQ44o_kOeG1WCX-337" value="&lt;span style=&quot;font-family: &amp;quot;Comic Sans MS&amp;quot;;&quot;&gt;生成图像通过 content / style classifier&amp;nbsp;&lt;/span&gt;&lt;span style=&quot;font-family: &amp;quot;Comic Sans MS&amp;quot;; background-color: transparent; color: light-dark(rgb(0, 0, 0), rgb(255, 255, 255));&quot;&gt;或重新提取出 content / style embedding&lt;/span&gt;" style="whiteSpace=wrap;html=1;shape=partialRectangle;top=0;left=0;bottom=1;right=0;points=[[0,1],[1,1]];fillColor=none;align=center;verticalAlign=bottom;routingCenterY=0.5;snapToPoint=1;recursiveResize=0;autosize=1;treeFolding=1;treeMoving=1;newEdgeStyle={&quot;edgeStyle&quot;:&quot;entityRelationEdgeStyle&quot;,&quot;startArrow&quot;:&quot;none&quot;,&quot;endArrow&quot;:&quot;none&quot;,&quot;segment&quot;:10,&quot;curved&quot;:1,&quot;sourcePerimeterSpacing&quot;:0,&quot;targetPerimeterSpacing&quot;:0};" parent="q-akzQOQ44o_kOeG1WCX-312" vertex="1">
          <mxGeometry x="180" y="265" width="480" height="30" as="geometry" />
        </mxCell>
        <mxCell id="q-akzQOQ44o_kOeG1WCX-340" value="" style="edgeStyle=entityRelationEdgeStyle;rounded=0;orthogonalLoop=1;jettySize=auto;html=1;startArrow=none;endArrow=none;segment=10;curved=1;sourcePerimeterSpacing=0;targetPerimeterSpacing=0;" parent="q-akzQOQ44o_kOeG1WCX-312" source="q-akzQOQ44o_kOeG1WCX-313" target="q-akzQOQ44o_kOeG1WCX-341" edge="1">
          <mxGeometry relative="1" as="geometry" />
        </mxCell>
        <mxCell id="q-akzQOQ44o_kOeG1WCX-341" value="一些特殊的 loss" style="whiteSpace=wrap;html=1;shape=ellipse;perimeter=ellipsePerimeter;newEdgeStyle={&quot;edgeStyle&quot;:&quot;entityRelationEdgeStyle&quot;,&quot;startArrow&quot;:&quot;none&quot;,&quot;endArrow&quot;:&quot;none&quot;,&quot;segment&quot;:10,&quot;curved&quot;:1,&quot;sourcePerimeterSpacing&quot;:0,&quot;targetPerimeterSpacing&quot;:0};treeFolding=1;treeMoving=1;fontFamily=Comic Sans MS;sketch=1;curveFitting=1;jiggle=2;fillColor=#fff2cc;strokeColor=#d6b656;" parent="q-akzQOQ44o_kOeG1WCX-312" vertex="1">
          <mxGeometry x="180" y="510" width="130" height="30" as="geometry" />
        </mxCell>
        <mxCell id="q-akzQOQ44o_kOeG1WCX-342" value="&lt;span style=&quot;font-family: &amp;quot;Comic Sans MS&amp;quot;;&quot;&gt;attr loss&lt;/span&gt;&lt;div style=&quot;font-family: &amp;quot;Comic Sans MS&amp;quot;;&quot;&gt;专用于属性生成模型&lt;/div&gt;" style="whiteSpace=wrap;html=1;shape=partialRectangle;top=0;left=0;bottom=1;right=0;points=[[0,1],[1,1]];fillColor=none;align=center;verticalAlign=bottom;routingCenterY=0.5;snapToPoint=1;recursiveResize=0;autosize=1;treeFolding=1;treeMoving=1;newEdgeStyle={&quot;edgeStyle&quot;:&quot;entityRelationEdgeStyle&quot;,&quot;startArrow&quot;:&quot;none&quot;,&quot;endArrow&quot;:&quot;none&quot;,&quot;segment&quot;:10,&quot;curved&quot;:1,&quot;sourcePerimeterSpacing&quot;:0,&quot;targetPerimeterSpacing&quot;:0};" parent="q-akzQOQ44o_kOeG1WCX-312" vertex="1">
          <mxGeometry x="360" y="335" width="150" height="40" as="geometry" />
        </mxCell>
        <mxCell id="q-akzQOQ44o_kOeG1WCX-343" value="" style="edgeStyle=entityRelationEdgeStyle;startArrow=none;endArrow=none;segment=10;curved=1;sourcePerimeterSpacing=0;targetPerimeterSpacing=0;rounded=0;" parent="q-akzQOQ44o_kOeG1WCX-312" source="q-akzQOQ44o_kOeG1WCX-341" target="q-akzQOQ44o_kOeG1WCX-342" edge="1">
          <mxGeometry x="-930" y="-1480" width="80" height="20" as="geometry" />
        </mxCell>
        <mxCell id="q-akzQOQ44o_kOeG1WCX-350" value="" style="edgeStyle=entityRelationEdgeStyle;startArrow=none;endArrow=none;segment=10;curved=1;sourcePerimeterSpacing=0;targetPerimeterSpacing=0;rounded=0;" parent="q-akzQOQ44o_kOeG1WCX-312" source="q-akzQOQ44o_kOeG1WCX-313" target="q-akzQOQ44o_kOeG1WCX-351" edge="1">
          <mxGeometry x="-1070" y="-1525" width="80" height="20" as="geometry">
            <mxPoint x="1450" y="285" as="sourcePoint" />
          </mxGeometry>
        </mxCell>
        <mxCell id="q-akzQOQ44o_kOeG1WCX-351" value="&lt;span style=&quot;font-family: &amp;quot;Comic Sans MS&amp;quot;;&quot;&gt;ocr loss&lt;/span&gt;" style="whiteSpace=wrap;html=1;shape=partialRectangle;top=0;left=0;bottom=1;right=0;points=[[0,1],[1,1]];fillColor=none;align=center;verticalAlign=bottom;routingCenterY=0.5;snapToPoint=1;recursiveResize=0;autosize=1;treeFolding=1;treeMoving=1;newEdgeStyle={&quot;edgeStyle&quot;:&quot;entityRelationEdgeStyle&quot;,&quot;startArrow&quot;:&quot;none&quot;,&quot;endArrow&quot;:&quot;none&quot;,&quot;segment&quot;:10,&quot;curved&quot;:1,&quot;sourcePerimeterSpacing&quot;:0,&quot;targetPerimeterSpacing&quot;:0};" parent="q-akzQOQ44o_kOeG1WCX-312" vertex="1">
          <mxGeometry x="180" y="755" width="80" height="30" as="geometry" />
        </mxCell>
        <mxCell id="q-akzQOQ44o_kOeG1WCX-352" value="" style="edgeStyle=entityRelationEdgeStyle;startArrow=none;endArrow=none;segment=10;curved=1;sourcePerimeterSpacing=0;targetPerimeterSpacing=0;rounded=0;" parent="q-akzQOQ44o_kOeG1WCX-312" source="q-akzQOQ44o_kOeG1WCX-341" target="q-akzQOQ44o_kOeG1WCX-353" edge="1">
          <mxGeometry x="-930" y="-1480" width="80" height="20" as="geometry">
            <mxPoint x="1630" y="607" as="sourcePoint" />
          </mxGeometry>
        </mxCell>
        <mxCell id="q-akzQOQ44o_kOeG1WCX-353" value="&lt;span style=&quot;font-family: &amp;quot;Comic Sans MS&amp;quot;;&quot;&gt;offset loss&lt;/span&gt;&lt;div style=&quot;font-family: &amp;quot;Comic Sans MS&amp;quot;;&quot;&gt;专用于 DCN 网络&lt;/div&gt;" style="whiteSpace=wrap;html=1;shape=partialRectangle;top=0;left=0;bottom=1;right=0;points=[[0,1],[1,1]];fillColor=none;align=center;verticalAlign=bottom;routingCenterY=0.5;snapToPoint=1;recursiveResize=0;autosize=1;treeFolding=1;treeMoving=1;newEdgeStyle={&quot;edgeStyle&quot;:&quot;entityRelationEdgeStyle&quot;,&quot;startArrow&quot;:&quot;none&quot;,&quot;endArrow&quot;:&quot;none&quot;,&quot;segment&quot;:10,&quot;curved&quot;:1,&quot;sourcePerimeterSpacing&quot;:0,&quot;targetPerimeterSpacing&quot;:0};" parent="q-akzQOQ44o_kOeG1WCX-312" vertex="1">
          <mxGeometry x="360" y="415" width="130" height="40" as="geometry" />
        </mxCell>
        <mxCell id="q-akzQOQ44o_kOeG1WCX-354" value="" style="edgeStyle=entityRelationEdgeStyle;startArrow=none;endArrow=none;segment=10;curved=1;sourcePerimeterSpacing=0;targetPerimeterSpacing=0;rounded=0;" parent="q-akzQOQ44o_kOeG1WCX-312" source="q-akzQOQ44o_kOeG1WCX-313" target="q-akzQOQ44o_kOeG1WCX-355" edge="1">
          <mxGeometry x="-1070" y="-1525" width="80" height="20" as="geometry">
            <mxPoint x="1450" y="500" as="sourcePoint" />
          </mxGeometry>
        </mxCell>
        <mxCell id="q-akzQOQ44o_kOeG1WCX-355" value="&lt;font face=&quot;Comic Sans MS&quot;&gt;在更细粒度的 level 上计算 loss&lt;/font&gt;" style="whiteSpace=wrap;html=1;shape=partialRectangle;top=0;left=0;bottom=1;right=0;points=[[0,1],[1,1]];fillColor=none;align=center;verticalAlign=bottom;routingCenterY=0.5;snapToPoint=1;recursiveResize=0;autosize=1;treeFolding=1;treeMoving=1;newEdgeStyle={&quot;edgeStyle&quot;:&quot;entityRelationEdgeStyle&quot;,&quot;startArrow&quot;:&quot;none&quot;,&quot;endArrow&quot;:&quot;none&quot;,&quot;segment&quot;:10,&quot;curved&quot;:1,&quot;sourcePerimeterSpacing&quot;:0,&quot;targetPerimeterSpacing&quot;:0};" parent="q-akzQOQ44o_kOeG1WCX-312" vertex="1">
          <mxGeometry x="180" y="870" width="210" height="30" as="geometry" />
        </mxCell>
        <mxCell id="q-akzQOQ44o_kOeG1WCX-356" value="" style="edgeStyle=entityRelationEdgeStyle;startArrow=none;endArrow=none;segment=10;curved=1;sourcePerimeterSpacing=0;targetPerimeterSpacing=0;rounded=0;" parent="q-akzQOQ44o_kOeG1WCX-312" source="q-akzQOQ44o_kOeG1WCX-355" target="q-akzQOQ44o_kOeG1WCX-357" edge="1">
          <mxGeometry x="-1070" y="-1525" width="80" height="20" as="geometry">
            <mxPoint x="1450" y="767.5" as="sourcePoint" />
          </mxGeometry>
        </mxCell>
        <mxCell id="q-akzQOQ44o_kOeG1WCX-357" value="&lt;span style=&quot;font-family: &amp;quot;Comic Sans MS&amp;quot;;&quot;&gt;CG-GAN&lt;/span&gt;&lt;div style=&quot;font-family: &amp;quot;Comic Sans MS&amp;quot;;&quot;&gt;通过 attn map 关注不同的 component&lt;/div&gt;" style="whiteSpace=wrap;html=1;shape=partialRectangle;top=0;left=0;bottom=1;right=0;points=[[0,1],[1,1]];fillColor=none;align=center;verticalAlign=bottom;routingCenterY=0.5;snapToPoint=1;recursiveResize=0;autosize=1;treeFolding=1;treeMoving=1;newEdgeStyle={&quot;edgeStyle&quot;:&quot;entityRelationEdgeStyle&quot;,&quot;startArrow&quot;:&quot;none&quot;,&quot;endArrow&quot;:&quot;none&quot;,&quot;segment&quot;:10,&quot;curved&quot;:1,&quot;sourcePerimeterSpacing&quot;:0,&quot;targetPerimeterSpacing&quot;:0};" parent="q-akzQOQ44o_kOeG1WCX-312" vertex="1">
          <mxGeometry x="440" y="825" width="240" height="40" as="geometry" />
        </mxCell>
        <mxCell id="q-akzQOQ44o_kOeG1WCX-358" value="" style="edgeStyle=entityRelationEdgeStyle;startArrow=none;endArrow=none;segment=10;curved=1;sourcePerimeterSpacing=0;targetPerimeterSpacing=0;rounded=0;" parent="q-akzQOQ44o_kOeG1WCX-312" source="q-akzQOQ44o_kOeG1WCX-355" target="q-akzQOQ44o_kOeG1WCX-359" edge="1">
          <mxGeometry x="-1070" y="-1525" width="80" height="20" as="geometry">
            <mxPoint x="1710" y="1014.5" as="sourcePoint" />
          </mxGeometry>
        </mxCell>
        <mxCell id="q-akzQOQ44o_kOeG1WCX-359" value="&lt;div style=&quot;font-family: &amp;quot;Comic Sans MS&amp;quot;;&quot;&gt;AGIS-Net&lt;/div&gt;&lt;span style=&quot;font-family: &amp;quot;Comic Sans MS&amp;quot;;&quot;&gt;在 pachify level 上计算 loss&lt;/span&gt;" style="whiteSpace=wrap;html=1;shape=partialRectangle;top=0;left=0;bottom=1;right=0;points=[[0,1],[1,1]];fillColor=none;align=center;verticalAlign=bottom;routingCenterY=0.5;snapToPoint=1;recursiveResize=0;autosize=1;treeFolding=1;treeMoving=1;newEdgeStyle={&quot;edgeStyle&quot;:&quot;entityRelationEdgeStyle&quot;,&quot;startArrow&quot;:&quot;none&quot;,&quot;endArrow&quot;:&quot;none&quot;,&quot;segment&quot;:10,&quot;curved&quot;:1,&quot;sourcePerimeterSpacing&quot;:0,&quot;targetPerimeterSpacing&quot;:0};" parent="q-akzQOQ44o_kOeG1WCX-312" vertex="1">
          <mxGeometry x="440" y="905" width="190" height="40" as="geometry" />
        </mxCell>
        <mxCell id="q-akzQOQ44o_kOeG1WCX-360" value="" style="edgeStyle=entityRelationEdgeStyle;startArrow=none;endArrow=none;segment=10;curved=1;sourcePerimeterSpacing=0;targetPerimeterSpacing=0;rounded=0;" parent="q-akzQOQ44o_kOeG1WCX-312" source="q-akzQOQ44o_kOeG1WCX-341" target="q-akzQOQ44o_kOeG1WCX-361" edge="1">
          <mxGeometry x="-930" y="-1480" width="80" height="20" as="geometry">
            <mxPoint x="1630" y="849.5" as="sourcePoint" />
          </mxGeometry>
        </mxCell>
        <mxCell id="q-akzQOQ44o_kOeG1WCX-361" value="&lt;div style=&quot;font-family: &amp;quot;Comic Sans MS&amp;quot;;&quot;&gt;CF-Font&lt;/div&gt;&lt;span style=&quot;font-family: &amp;quot;Comic Sans MS&amp;quot;;&quot;&gt;Projected Character Loss&lt;/span&gt;&lt;div style=&quot;font-family: &amp;quot;Comic Sans MS&amp;quot;;&quot;&gt;将图像的 1D 投影视为概率分布&lt;/div&gt;" style="whiteSpace=wrap;html=1;shape=partialRectangle;top=0;left=0;bottom=1;right=0;points=[[0,1],[1,1]];fillColor=none;align=center;verticalAlign=bottom;routingCenterY=0.5;snapToPoint=1;recursiveResize=0;autosize=1;treeFolding=1;treeMoving=1;newEdgeStyle={&quot;edgeStyle&quot;:&quot;entityRelationEdgeStyle&quot;,&quot;startArrow&quot;:&quot;none&quot;,&quot;endArrow&quot;:&quot;none&quot;,&quot;segment&quot;:10,&quot;curved&quot;:1,&quot;sourcePerimeterSpacing&quot;:0,&quot;targetPerimeterSpacing&quot;:0};" parent="q-akzQOQ44o_kOeG1WCX-312" vertex="1">
          <mxGeometry x="360" y="495" width="210" height="60" as="geometry" />
        </mxCell>
        <mxCell id="q-akzQOQ44o_kOeG1WCX-362" value="" style="edgeStyle=entityRelationEdgeStyle;startArrow=none;endArrow=none;segment=10;curved=1;sourcePerimeterSpacing=0;targetPerimeterSpacing=0;rounded=0;" parent="q-akzQOQ44o_kOeG1WCX-312" source="q-akzQOQ44o_kOeG1WCX-351" target="q-akzQOQ44o_kOeG1WCX-363" edge="1">
          <mxGeometry x="-1070" y="-1525" width="80" height="20" as="geometry">
            <mxPoint x="1450" y="1085" as="sourcePoint" />
          </mxGeometry>
        </mxCell>
        <mxCell id="q-akzQOQ44o_kOeG1WCX-363" value="&lt;span style=&quot;font-family: &amp;quot;Comic Sans MS&amp;quot;;&quot;&gt;Attribute2Font&lt;/span&gt;" style="whiteSpace=wrap;html=1;shape=partialRectangle;top=0;left=0;bottom=1;right=0;points=[[0,1],[1,1]];fillColor=none;align=center;verticalAlign=bottom;routingCenterY=0.5;snapToPoint=1;recursiveResize=0;autosize=1;treeFolding=1;treeMoving=1;newEdgeStyle={&quot;edgeStyle&quot;:&quot;entityRelationEdgeStyle&quot;,&quot;startArrow&quot;:&quot;none&quot;,&quot;endArrow&quot;:&quot;none&quot;,&quot;segment&quot;:10,&quot;curved&quot;:1,&quot;sourcePerimeterSpacing&quot;:0,&quot;targetPerimeterSpacing&quot;:0};" parent="q-akzQOQ44o_kOeG1WCX-312" vertex="1">
          <mxGeometry x="310" y="755" width="130" height="30" as="geometry" />
        </mxCell>
        <mxCell id="q-akzQOQ44o_kOeG1WCX-374" value="" style="edgeStyle=entityRelationEdgeStyle;startArrow=none;endArrow=none;segment=10;curved=1;sourcePerimeterSpacing=0;targetPerimeterSpacing=0;rounded=0;" parent="q-akzQOQ44o_kOeG1WCX-312" source="q-akzQOQ44o_kOeG1WCX-341" target="q-akzQOQ44o_kOeG1WCX-375" edge="1">
          <mxGeometry x="-930" y="-1480" width="80" height="20" as="geometry">
            <mxPoint x="1624" y="1720" as="sourcePoint" />
          </mxGeometry>
        </mxCell>
        <mxCell id="q-akzQOQ44o_kOeG1WCX-375" value="&lt;div style=&quot;font-family: &amp;quot;Comic Sans MS&amp;quot;;&quot;&gt;MX-Font&lt;div&gt;多个 expert 通过 component ce loss 间接监督&lt;/div&gt;&lt;/div&gt;" style="whiteSpace=wrap;html=1;shape=partialRectangle;top=0;left=0;bottom=1;right=0;points=[[0,1],[1,1]];fillColor=none;align=center;verticalAlign=bottom;routingCenterY=0.5;snapToPoint=1;recursiveResize=0;autosize=1;treeFolding=1;treeMoving=1;newEdgeStyle={&quot;edgeStyle&quot;:&quot;entityRelationEdgeStyle&quot;,&quot;startArrow&quot;:&quot;none&quot;,&quot;endArrow&quot;:&quot;none&quot;,&quot;segment&quot;:10,&quot;curved&quot;:1,&quot;sourcePerimeterSpacing&quot;:0,&quot;targetPerimeterSpacing&quot;:0};" parent="q-akzQOQ44o_kOeG1WCX-312" vertex="1">
          <mxGeometry x="360" y="595" width="290" height="40" as="geometry" />
        </mxCell>
        <mxCell id="q-akzQOQ44o_kOeG1WCX-376" value="" style="edgeStyle=entityRelationEdgeStyle;startArrow=none;endArrow=none;segment=10;curved=1;sourcePerimeterSpacing=0;targetPerimeterSpacing=0;rounded=0;" parent="q-akzQOQ44o_kOeG1WCX-312" source="q-akzQOQ44o_kOeG1WCX-341" target="q-akzQOQ44o_kOeG1WCX-377" edge="1">
          <mxGeometry x="-930" y="-1480" width="80" height="20" as="geometry">
            <mxPoint x="1624" y="2132.5" as="sourcePoint" />
          </mxGeometry>
        </mxCell>
        <mxCell id="q-akzQOQ44o_kOeG1WCX-377" value="&lt;div style=&quot;font-family: &amp;quot;Comic Sans MS&amp;quot;;&quot;&gt;CG-GAN&lt;div&gt;attn 机制，依靠损失函数间接关注不同的 component&lt;/div&gt;&lt;/div&gt;" style="whiteSpace=wrap;html=1;shape=partialRectangle;top=0;left=0;bottom=1;right=0;points=[[0,1],[1,1]];fillColor=none;align=center;verticalAlign=bottom;routingCenterY=0.5;snapToPoint=1;recursiveResize=0;autosize=1;treeFolding=1;treeMoving=1;newEdgeStyle={&quot;edgeStyle&quot;:&quot;entityRelationEdgeStyle&quot;,&quot;startArrow&quot;:&quot;none&quot;,&quot;endArrow&quot;:&quot;none&quot;,&quot;segment&quot;:10,&quot;curved&quot;:1,&quot;sourcePerimeterSpacing&quot;:0,&quot;targetPerimeterSpacing&quot;:0};" parent="q-akzQOQ44o_kOeG1WCX-312" vertex="1">
          <mxGeometry x="360" y="675" width="320" height="40" as="geometry" />
        </mxCell>
        <mxCell id="0b1DVXO6CSswv5WaN7hV-1" value="" style="shape=flexArrow;endArrow=classic;html=1;rounded=0;fillColor=#e1d5e7;strokeColor=#9673a6;" edge="1" parent="1">
          <mxGeometry width="50" height="50" relative="1" as="geometry">
            <mxPoint x="1270" y="650" as="sourcePoint" />
            <mxPoint x="1430" y="650" as="targetPoint" />
          </mxGeometry>
        </mxCell>
        <mxCell id="0b1DVXO6CSswv5WaN7hV-3" value="" style="shape=flexArrow;endArrow=classic;html=1;rounded=0;fillColor=#e1d5e7;strokeColor=#9673a6;" edge="1" parent="1">
          <mxGeometry width="50" height="50" relative="1" as="geometry">
            <mxPoint x="1880" y="860" as="sourcePoint" />
            <mxPoint x="1880" y="950" as="targetPoint" />
          </mxGeometry>
        </mxCell>
        <mxCell id="0b1DVXO6CSswv5WaN7hV-4" value="" style="shape=flexArrow;endArrow=classic;html=1;rounded=0;fillColor=#e1d5e7;strokeColor=#9673a6;" edge="1" parent="1">
          <mxGeometry width="50" height="50" relative="1" as="geometry">
            <mxPoint x="1420" y="1070" as="sourcePoint" />
            <mxPoint x="1260" y="1150" as="targetPoint" />
          </mxGeometry>
        </mxCell>
        <mxCell id="0b1DVXO6CSswv5WaN7hV-5" value="" style="shape=flexArrow;endArrow=classic;html=1;rounded=0;fillColor=#e1d5e7;strokeColor=#9673a6;" edge="1" parent="1">
          <mxGeometry width="50" height="50" relative="1" as="geometry">
            <mxPoint x="1270" y="1450" as="sourcePoint" />
            <mxPoint x="1430" y="1450" as="targetPoint" />
          </mxGeometry>
        </mxCell>
        <mxCell id="0b1DVXO6CSswv5WaN7hV-6" value="" style="shape=flexArrow;endArrow=classic;html=1;rounded=0;fillColor=#e1d5e7;strokeColor=#9673a6;" edge="1" parent="1">
          <mxGeometry width="50" height="50" relative="1" as="geometry">
            <mxPoint x="1870" y="1654" as="sourcePoint" />
            <mxPoint x="1870" y="1774" as="targetPoint" />
          </mxGeometry>
        </mxCell>
      </root>
    </mxGraphModel>
  </diagram>
</mxfile>
